<svg xmlns="http://www.w3.org/2000/svg" width="512" height="512" fill="none"><g clip-path="url('#clip0_423_1160')"><path d="M0 0h512v512H0z"/><circle cx="256" cy="256" r="256" fill="#050A0B"/><path d="m265.8 237.605 81.89 179.003H165l81.89-179.003a10.392 10.392 0 0 1 3.84-4.407 10.42 10.42 0 0 1 11.23 0 10.392 10.392 0 0 1 3.84 4.407ZM256.337 209.86c31.773 0 57.53-25.712 57.53-57.43S288.11 95 256.337 95s-57.53 25.712-57.53 57.43 25.757 57.43 57.53 57.43Z" fill="#fff"/></g><defs><clipPath id="clip0_423_1160"><path d="M0 0h512v512H0z"/></clipPath></defs></svg>
