<svg width="24" height="24" viewBox="0 0 24 24" fill="none" xmlns="http://www.w3.org/2000/svg">
<path d="M12 9.4C12 7.15979 12 6.03969 12.436 5.18404C12.8195 4.43139 13.4314 3.81947 14.184 3.43598C15.0397 3 16.1598 3 18.4 3H18.8C19.9201 3 20.4802 3 20.908 3.21799C21.2843 3.40974 21.5903 3.7157 21.782 4.09202C22 4.51984 22 5.0799 22 6.2V14.8C22 15.9201 22 16.4802 21.782 16.908C21.5903 17.2843 21.2843 17.5903 20.908 17.782C20.4802 18 19.9201 18 18.8 18H17.4252C16.1729 18 15.5468 18 14.9784 18.1726C14.4752 18.3254 14.0071 18.5759 13.6009 18.9098C13.142 19.287 12.7947 19.808 12.1001 20.8499L12 21L11.8999 20.8499C11.2053 19.808 10.858 19.287 10.3991 18.9098C9.99286 18.5759 9.52477 18.3254 9.02161 18.1726C8.45325 18 7.82711 18 6.57483 18H5.2C4.0799 18 3.51984 18 3.09202 17.782C2.7157 17.5903 2.40974 17.2843 2.21799 16.908C2 16.4802 2 15.9201 2 14.8V6.2C2 5.0799 2 4.51984 2.21799 4.09202C2.40974 3.7157 2.7157 3.40974 3.09202 3.21799C3.51984 3 4.0799 3 5.2 3H5.6C7.84021 3 8.96032 3 9.81596 3.43598C10.5686 3.81947 11.1805 4.43139 11.564 5.18404C12 6.03969 12 7.15979 12 9.4ZM12 21V9.4" stroke="currentColor" stroke-width="2" stroke-linecap="round" stroke-linejoin="round"/>
</svg>
