<svg width="24" height="24" viewBox="0 0 24 24" fill="none" xmlns="http://www.w3.org/2000/svg">
<g transform="translate(3.0000, 1.0000)">
<path d="M11 1.26959V5.40014C11 5.96019 11 6.24021 11.109 6.45412C11.2049 6.64229 11.3578 6.79527 11.546 6.89114C11.7599 7.00013 12.0399 7.00013 12.6 7.00013H16.7305M11 16.5001L13.5 14.0001L11 11.5001M7 11.5001L4.5 14.0001L7 16.5001M17 8.98829V16.2001C17 17.8802 17 18.7203 16.673 19.362C16.3854 19.9265 15.9265 20.3855 15.362 20.6731C14.7202 21.0001 13.8802 21.0001 12.2 21.0001H5.8C4.11984 21.0001 3.27976 21.0001 2.63803 20.6731C2.07354 20.3855 1.6146 19.9265 1.32698 19.362C1 18.7203 1 17.8802 1 16.2001V5.80006C1 4.11991 1 3.27983 1.32698 2.63809C1.6146 2.07361 2.07354 1.61466 2.63803 1.32704C3.27976 1.00006 4.11984 1.00006 5.8 1.00006H9.01178C9.74555 1.00006 10.1124 1.00006 10.4577 1.08295C10.7638 1.15644 11.0564 1.27766 11.3249 1.44214C11.6276 1.62767 11.887 1.8871 12.4059 2.40595L15.5941 5.59417C16.113 6.11303 16.3724 6.37246 16.5579 6.67521C16.7224 6.94363 16.8436 7.23626 16.9171 7.54237C17 7.88763 17 8.25452 17 8.98829Z" stroke="currentColor" stroke-width="1" stroke-linecap="round" stroke-linejoin="round"/>
</g>
</svg>
