<svg width="24" height="24" viewBox="0 0 24 24" fill="none" xmlns="http://www.w3.org/2000/svg">
<g transform="translate(1.7500, 1.0000)">
<path d="M3.5 17.5001C3.5 17.9645 3.5 18.1967 3.52567 18.3916C3.7029 19.7378 4.76222 20.7972 6.10842 20.9744C6.30337 21.0001 6.53558 21.0001 7 21.0001H14.7C16.3802 21.0001 17.2202 21.0001 17.862 20.6731C18.4265 20.3855 18.8854 19.9265 19.173 19.362C19.5 18.7203 19.5 17.8802 19.5 16.2001V8.98829C19.5 8.25452 19.5 7.88763 19.4171 7.54237C19.3436 7.23626 19.2224 6.94363 19.0579 6.67521C18.8724 6.37246 18.613 6.11302 18.0941 5.59417L14.9059 2.40595C14.387 1.8871 14.1276 1.62767 13.8249 1.44214C13.5564 1.27766 13.2638 1.15644 12.9577 1.08295C12.6124 1.00006 12.2455 1.00006 11.5118 1.00006H7C6.53558 1.00006 6.30337 1.00006 6.10842 1.02573C4.76222 1.20296 3.7029 2.26228 3.52567 3.60848C3.5 3.80343 3.5 4.03564 3.5 4.50006M7.5 13.5001L10 11.0001L7.5 8.50006M3.5 8.50006L1 11.0001L3.5 13.5001" stroke="currentColor" stroke-width="1" stroke-linecap="round" stroke-linejoin="round"/>
</g>
</svg>
