<svg width="20" height="20" viewBox="0 0 20 20" fill="none" xmlns="http://www.w3.org/2000/svg">
<path d="M10.8333 17.5V18.25C11.2475 18.25 11.5833 17.9142 11.5833 17.5H10.8333ZM2.5 17.5H1.75C1.75 17.9142 2.08579 18.25 2.5 18.25V17.5ZM9.92332 2.68166L9.58282 3.34991L9.92332 2.68166ZM10.6517 3.41002L9.98342 3.75051L10.6517 3.41002ZM3.41002 2.68166L3.75051 3.34991L3.41002 2.68166ZM2.68166 3.41002L3.34991 3.75051L2.68166 3.41002ZM2.5 8.41667C2.08579 8.41667 1.75 8.75245 1.75 9.16667C1.75 9.58088 2.08579 9.91667 2.5 9.91667L2.5 9.16667L2.5 8.41667ZM10.8333 9.91667C11.2475 9.91667 11.5833 9.58088 11.5833 9.16667C11.5833 8.75245 11.2475 8.41667 10.8333 8.41667V9.16667V9.91667ZM10.8333 10.9167C10.4191 10.9167 10.0833 11.2525 10.0833 11.6667C10.0833 12.0809 10.4191 12.4167 10.8333 12.4167V11.6667V10.9167ZM15.8334 17.4999L15.8334 18.2499L15.8334 17.4999ZM16.4821 6.85376C16.775 7.14665 17.2498 7.14665 17.5427 6.85376C17.8356 6.56087 17.8356 6.08599 17.5427 5.7931L17.0124 6.32343L16.4821 6.85376ZM14.0072 2.25757C13.7143 1.96467 13.2394 1.96467 12.9465 2.25757C12.6537 2.55046 12.6537 3.02533 12.9465 3.31823L13.4769 2.7879L14.0072 2.25757ZM5.16667 2.5V3.25H8.16667V2.5V1.75H5.16667V2.5ZM10.8333 5.16667H10.0833V17.5H10.8333H11.5833V5.16667H10.8333ZM10.8333 17.5V16.75H2.5V17.5V18.25H10.8333V17.5ZM2.5 17.5H3.25V5.16667H2.5H1.75V17.5H2.5ZM8.16667 2.5V3.25C8.64575 3.25 8.95996 3.25058 9.20026 3.27022C9.4318 3.28913 9.52792 3.32193 9.58282 3.34991L9.92332 2.68166L10.2638 2.0134C9.9622 1.85972 9.6467 1.80169 9.3224 1.7752C9.00686 1.74942 8.621 1.75 8.16667 1.75V2.5ZM10.8333 5.16667H11.5833C11.5833 4.71233 11.5839 4.32647 11.5581 4.01093C11.5316 3.68663 11.4736 3.37113 11.3199 3.06952L10.6517 3.41002L9.98342 3.75051C10.0114 3.80542 10.0442 3.90154 10.0631 4.13308C10.0827 4.37337 10.0833 4.68758 10.0833 5.16667H10.8333ZM9.92332 2.68166L9.58282 3.34991C9.75531 3.43779 9.89554 3.57803 9.98342 3.75051L10.6517 3.41002L11.3199 3.06952C11.0882 2.6148 10.7185 2.24509 10.2638 2.0134L9.92332 2.68166ZM5.16667 2.5V1.75C4.71233 1.75 4.32647 1.74942 4.01093 1.7752C3.68663 1.80169 3.37113 1.85972 3.06952 2.0134L3.41002 2.68166L3.75051 3.34991C3.80542 3.32193 3.90154 3.28913 4.13308 3.27022C4.37337 3.25058 4.68758 3.25 5.16667 3.25V2.5ZM2.5 5.16667H3.25C3.25 4.68758 3.25058 4.37337 3.27022 4.13308C3.28913 3.90154 3.32193 3.80542 3.34991 3.75051L2.68166 3.41002L2.0134 3.06952C1.85972 3.37113 1.80169 3.68663 1.7752 4.01093C1.74942 4.32647 1.75 4.71233 1.75 5.16667H2.5ZM3.41002 2.68166L3.06952 2.0134C2.6148 2.24509 2.24509 2.6148 2.0134 3.06952L2.68166 3.41002L3.34991 3.75051C3.43779 3.57803 3.57803 3.43779 3.75051 3.34991L3.41002 2.68166ZM2.5 9.16667L2.5 9.91667L10.8333 9.91667V9.16667V8.41667L2.5 8.41667L2.5 9.16667ZM10.8333 11.6667V12.4167H13.6364V11.6667V10.9167H10.8333V11.6667ZM14.1667 12.1969H13.4167V15.8333H14.1667H14.9167V12.1969H14.1667ZM17.5 15.8333H18.25V7.49985H17.5H16.75V15.8333H17.5ZM15.8334 17.4999L15.8334 18.2499C17.1681 18.2499 18.25 17.1679 18.25 15.8333H17.5H16.75C16.75 16.3395 16.3396 16.7499 15.8334 16.7499L15.8334 17.4999ZM14.1667 15.8333H13.4167C13.4167 17.168 14.4987 18.25 15.8334 18.2499L15.8334 17.4999L15.8334 16.7499C15.3271 16.7499 14.9167 16.3395 14.9167 15.8333H14.1667ZM13.6364 11.6667V12.4167C13.515 12.4167 13.4167 12.3183 13.4167 12.1969H14.1667H14.9167C14.9167 11.4899 14.3435 10.9167 13.6364 10.9167V11.6667ZM17.5 7.49985H16.75C16.75 8.0062 16.3395 8.41667 15.8333 8.41667V9.16667V9.91667C17.1681 9.91667 18.25 8.83444 18.25 7.49985H17.5ZM15.8333 9.16667V8.41667C15.3271 8.41667 14.9167 8.00626 14.9167 7.5H14.1667H13.4167C13.4167 8.83469 14.4986 9.91667 15.8333 9.91667V9.16667ZM14.1667 7.5H14.9167C14.9167 6.99374 15.3271 6.58333 15.8333 6.58333V5.83333V5.08333C14.4986 5.08333 13.4167 6.16531 13.4167 7.5H14.1667ZM15.8333 5.83333V6.58333C16.3397 6.58333 16.75 6.99368 16.75 7.49985H17.5H18.25C18.25 6.16507 17.1679 5.08333 15.8333 5.08333V5.83333ZM17.0124 6.32343L17.5427 5.7931L14.0072 2.25757L13.4769 2.7879L12.9465 3.31823L16.4821 6.85376L17.0124 6.32343Z" fill="currentColor"/>
</svg>
