<svg width="24" height="24" viewBox="0 0 24 24" fill="none" xmlns="http://www.w3.org/2000/svg">
<g transform="translate(2.0000, 2.0000)">
<path d="M1 1V11.2C1 12.8802 1 13.7202 1.32698 14.362C1.6146 14.9265 2.07354 15.3854 2.63803 15.673C3.27976 16 4.11984 16 5.8 16H13M13 16C13 17.6569 14.3431 19 16 19C17.6569 19 19 17.6569 19 16C19 14.3431 17.6569 13 16 13C14.3431 13 13 14.3431 13 16ZM1 6L13 6M13 6C13 7.65686 14.3431 9 16 9C17.6569 9 19 7.65685 19 6C19 4.34315 17.6569 3 16 3C14.3431 3 13 4.34315 13 6Z" stroke="currentColor" stroke-width="1" stroke-linecap="round" stroke-linejoin="round"/>
</g>
</svg>
