<svg width="24" height="24" viewBox="0 0 24 24" fill="none" xmlns="http://www.w3.org/2000/svg">
<g transform="translate(4.0000, 1.0000)">
<path d="M8 16.5H8.01M4.2 21H11.8C12.9201 21 13.4802 21 13.908 20.782C14.2843 20.5903 14.5903 20.2843 14.782 19.908C15 19.4802 15 18.9201 15 17.8V4.2C15 3.0799 15 2.51984 14.782 2.09202C14.5903 1.7157 14.2843 1.40974 13.908 1.21799C13.4802 1 12.9201 1 11.8 1H4.2C3.0799 1 2.51984 1 2.09202 1.21799C1.7157 1.40974 1.40974 1.7157 1.21799 2.09202C1 2.51984 1 3.0799 1 4.2V17.8C1 18.9201 1 19.4802 1.21799 19.908C1.40974 20.2843 1.7157 20.5903 2.09202 20.782C2.51984 21 3.0799 21 4.2 21ZM8.5 16.5C8.5 16.7761 8.27614 17 8 17C7.72386 17 7.5 16.7761 7.5 16.5C7.5 16.2239 7.72386 16 8 16C8.27614 16 8.5 16.2239 8.5 16.5Z" stroke="currentColor" stroke-width="2" stroke-linecap="round" stroke-linejoin="round"/>
</g>
</svg>
