<svg width="24" height="24" viewBox="0 0 24 24" fill="none" xmlns="http://www.w3.org/2000/svg">
<path d="M12.7939 10.7576L3.29388 20.2576M13.8123 3.29607C15.0303 4.10428 16.201 5.0571 17.295 6.1511C18.3985 7.25452 19.3583 8.43601 20.1709 9.66536M9.04884 7.65375L6.17397 6.69546C5.84289 6.58509 5.47822 6.65532 5.2118 6.88075L2.35464 9.29835C1.76972 9.79329 1.9359 10.7352 2.65488 11.0001L5.36208 11.9975M11.4749 18.1101L12.4723 20.8173C12.7372 21.5363 13.6791 21.7025 14.174 21.1176L16.5916 18.2604C16.8171 17.994 16.8873 17.6293 16.7769 17.2982L15.8186 14.4234M19.1425 2.02833L14.236 2.84608C13.7062 2.93438 13.2202 3.19478 12.8533 3.58702L6.24024 10.6562C4.52608 12.4885 4.57376 15.3501 6.34801 17.1244C8.12227 18.8986 10.9838 18.9463 12.8162 17.2321L19.8854 10.6191C20.2776 10.2521 20.538 9.76619 20.6263 9.23639L21.444 4.32992C21.6697 2.97627 20.4961 1.80273 19.1425 2.02833Z" stroke="currentColor" stroke-width="1" stroke-linecap="round" stroke-linejoin="round"/>
</svg>
