<svg width="24" height="24" viewBox="0 0 24 24" fill="none" xmlns="http://www.w3.org/2000/svg">
<g transform="translate(0.9999, 1.5000)">
<path d="M21.0001 9L20.5257 5.20463C20.3396 3.71602 20.2466 2.97169 19.8963 2.4108C19.5876 1.91662 19.1417 1.52301 18.6131 1.27804C18.0131 1 17.263 1 15.7628 1H6.23746C4.73725 1 3.98714 1 3.38713 1.27804C2.85848 1.52301 2.41261 1.91662 2.10396 2.4108C1.75364 2.9717 1.6606 3.71601 1.47453 5.20463L1.00011 9M4.50011 13H17.5001M4.50011 13C2.56711 13 1.00011 11.433 1.00011 9.5C1.00011 7.567 2.56711 6 4.50011 6H17.5001C19.4331 6 21.0001 7.567 21.0001 9.5C21.0001 11.433 19.4331 13 17.5001 13M4.50011 13C2.56711 13 1.00011 14.567 1.00011 16.5C1.00011 18.433 2.56711 20 4.50011 20H17.5001C19.4331 20 21.0001 18.433 21.0001 16.5C21.0001 14.567 19.4331 13 17.5001 13M5.00011 9.5H5.01011M5.00011 16.5H5.01011M11.0001 9.5H17.0001M11.0001 16.5H17.0001" stroke="currentColor" stroke-width="2" stroke-linecap="round" stroke-linejoin="round"/>
</g>
</svg>
