<svg width="24" height="24" viewBox="0 0 24 24" fill="none" xmlns="http://www.w3.org/2000/svg">
<g transform="translate(3.0000, 1.0000)">
<path d="M9 16.5H9.01M4.2 21H13.8C14.9201 21 15.4802 21 15.908 20.782C16.2843 20.5903 16.5903 20.2843 16.782 19.908C17 19.4802 17 18.9201 17 17.8V4.2C17 3.0799 17 2.51984 16.782 2.09202C16.5903 1.7157 16.2843 1.40974 15.908 1.21799C15.4802 1 14.9201 1 13.8 1H4.2C3.0799 1 2.51984 1 2.09202 1.21799C1.7157 1.40974 1.40974 1.7157 1.21799 2.09202C1 2.51984 1 3.0799 1 4.2V17.8C1 18.9201 1 19.4802 1.21799 19.908C1.40974 20.2843 1.7157 20.5903 2.09202 20.782C2.51984 21 3.0799 21 4.2 21ZM9.5 16.5C9.5 16.7761 9.27614 17 9 17C8.72386 17 8.5 16.7761 8.5 16.5C8.5 16.2239 8.72386 16 9 16C9.27614 16 9.5 16.2239 9.5 16.5Z" stroke="currentColor" stroke-width="2" stroke-linecap="round" stroke-linejoin="round"/>
</g>
</svg>
