<svg width="24" height="24" viewBox="0 0 24 24" fill="none" xmlns="http://www.w3.org/2000/svg">
<g transform="translate(1.4393, 1.4393)">
<path d="M13.7527 6.63137C13.3567 6.23535 13.1587 6.03735 13.0845 5.80902C13.0192 5.60817 13.0192 5.39183 13.0845 5.19098C13.1587 4.96265 13.3567 4.76465 13.7527 4.36863L16.5911 1.53026C15.8378 1.18962 15.0017 1 14.1213 1C10.8076 1 8.12132 3.68629 8.12132 7C8.12132 7.49104 8.18031 7.9683 8.29158 8.42509C8.41074 8.91424 8.47032 9.15882 8.45974 9.31333C8.44867 9.47509 8.42455 9.56115 8.34995 9.70511C8.2787 9.84262 8.14218 9.97914 7.86914 10.2522L1.62132 16.5C0.792893 17.3284 0.792894 18.6716 1.62132 19.5C2.44975 20.3284 3.79289 20.3284 4.62132 19.5L10.8691 13.2522C11.1422 12.9791 11.2787 12.8426 11.4162 12.7714C11.5602 12.6968 11.6462 12.6727 11.808 12.6616C11.9625 12.651 12.2071 12.7106 12.6962 12.8297C13.153 12.941 13.6303 13 14.1213 13C17.435 13 20.1213 10.3137 20.1213 7C20.1213 6.11959 19.9317 5.28347 19.5911 4.53026L16.7527 7.36863C16.3567 7.76465 16.1587 7.96265 15.9303 8.03684C15.7295 8.1021 15.5131 8.1021 15.3123 8.03684C15.084 7.96265 14.886 7.76465 14.4899 7.36863L13.7527 6.63137Z" stroke="currentColor" stroke-width="1" stroke-linecap="round" stroke-linejoin="round"/>
</g>
</svg>
