<svg width="20" height="20" viewBox="0 0 20 20" fill="none" xmlns="http://www.w3.org/2000/svg">
<path d="M1.66699 6.5H0.916992H1.66699ZM1.93948 3.86502L2.60773 4.20552V4.20552L1.93948 3.86502ZM5.66699 2.5V3.25V2.5ZM3.03202 2.77248L2.69152 2.10423V2.10423L3.03202 2.77248ZM5.66699 17.5L5.66699 18.25H5.66699V17.5ZM3.03202 17.2275L3.37251 16.5593L3.03202 17.2275ZM1.66699 13.5H2.41699H1.66699ZM1.93948 16.135L1.27122 16.4755L1.93948 16.135ZM18.0612 16.135L18.7294 16.4755V16.4755L18.0612 16.135ZM14.3337 17.5V16.75V16.75V17.5ZM16.9686 17.2275L17.3091 17.8958L16.9686 17.2275ZM18.0612 3.86502L17.3929 4.20552L18.0612 3.86502ZM14.3337 2.5V1.75V2.5ZM16.9686 2.77248L16.6281 3.44074L16.9686 2.77248ZM1.66699 5.91667C1.25278 5.91667 0.916992 6.25245 0.916992 6.66667C0.916992 7.08088 1.25278 7.41667 1.66699 7.41667V6.66667V5.91667ZM18.3337 7.41667C18.7479 7.41667 19.0837 7.08088 19.0837 6.66667C19.0837 6.25245 18.7479 5.91667 18.3337 5.91667V6.66667V7.41667ZM7.32596 7.66153L7.74199 7.0375L7.74199 7.0375L7.32596 7.66153ZM6.84136 7.33846L7.25738 6.71443V6.71443L6.84136 7.33846ZM13.1593 7.33846L13.5753 7.9625L13.5753 7.9625L13.1593 7.33846ZM12.6747 7.66153L13.0907 8.28557V8.28557L12.6747 7.66153ZM11.9102 8.12454L11.6102 7.43717L11.6102 7.43717L11.9102 8.12454ZM11.3488 8.29454L11.4804 9.0329V9.0329L11.3488 8.29454ZM8.0904 8.12454L8.39046 7.43717H8.39046L8.0904 8.12454ZM8.65188 8.29454L8.52026 9.0329H8.52026L8.65188 8.29454ZM14.4852 6.70546L14.3536 5.9671L14.3536 5.9671L14.4852 6.70546ZM13.9237 6.87546L14.2238 7.56282V7.56282L13.9237 6.87546ZM5.51544 6.70546L5.64705 5.9671L5.64705 5.9671L5.51544 6.70546ZM6.07691 6.87546L6.37697 6.1881V6.1881L6.07691 6.87546ZM10.0003 13.4167C9.58611 13.4167 9.25033 13.7525 9.25033 14.1667C9.25033 14.5809 9.58611 14.9167 10.0003 14.9167V14.1667V13.4167ZM12.5003 14.9167C12.9145 14.9167 13.2503 14.5809 13.2503 14.1667C13.2503 13.7525 12.9145 13.4167 12.5003 13.4167V14.1667V14.9167ZM4.47 13.6363C4.1771 13.9292 4.1771 14.4041 4.47 14.697C4.76289 14.9899 5.23776 14.9899 5.53066 14.697L5.00033 14.1667L4.47 13.6363ZM7.08366 12.0833L7.61399 12.6137C7.90688 12.3208 7.90688 11.8459 7.61399 11.553L7.08366 12.0833ZM5.53066 9.46967C5.23776 9.17678 4.76289 9.17678 4.47 9.46967C4.1771 9.76256 4.1771 10.2374 4.47 10.5303L5.00033 10L5.53066 9.46967ZM18.3337 6.5H17.5837V13.5H18.3337H19.0837V6.5H18.3337ZM14.3337 17.5V16.75H5.66699V17.5V18.25H14.3337V17.5ZM1.66699 13.5H2.41699L2.41699 6.5H1.66699H0.916992L0.916992 13.5H1.66699ZM5.66699 2.5V3.25L14.3337 3.25V2.5V1.75L5.66699 1.75V2.5ZM1.66699 6.5H2.41699C2.41699 5.78756 2.41758 5.29833 2.44856 4.91908C2.47883 4.54858 2.53434 4.34956 2.60773 4.20552L1.93948 3.86502L1.27122 3.52453C1.07213 3.91527 0.991394 4.33367 0.953544 4.79693C0.916409 5.25144 0.916992 5.81231 0.916992 6.5H1.66699ZM5.66699 2.5V1.75C4.9793 1.75 4.41843 1.74942 3.96392 1.78655C3.50066 1.8244 3.08226 1.90514 2.69152 2.10423L3.03202 2.77248L3.37251 3.44074C3.51655 3.36735 3.71557 3.31184 4.08607 3.28157C4.46533 3.25058 4.95455 3.25 5.66699 3.25V2.5ZM1.93948 3.86502L2.60773 4.20552C2.77551 3.87623 3.04323 3.60852 3.37251 3.44074L3.03202 2.77248L2.69152 2.10423C2.08 2.41582 1.58281 2.913 1.27122 3.52453L1.93948 3.86502ZM5.66699 17.5V16.75C4.95455 16.75 4.46533 16.7494 4.08607 16.7184C3.71557 16.6882 3.51655 16.6326 3.37251 16.5593L3.03202 17.2275L2.69152 17.8958C3.08226 18.0949 3.50066 18.1756 3.96392 18.2134C4.41843 18.2506 4.9793 18.25 5.66699 18.25L5.66699 17.5ZM1.66699 13.5H0.916992C0.916992 14.1877 0.916409 14.7486 0.953543 15.2031C0.991393 15.6663 1.07213 16.0847 1.27122 16.4755L1.93948 16.135L2.60773 15.7945C2.53434 15.6504 2.47883 15.4514 2.44856 15.0809C2.41758 14.7017 2.41699 14.2124 2.41699 13.5H1.66699ZM3.03202 17.2275L3.37251 16.5593C3.04322 16.3915 2.77551 16.1238 2.60773 15.7945L1.93948 16.135L1.27122 16.4755C1.58281 17.087 2.08 17.5842 2.69152 17.8958L3.03202 17.2275ZM18.3337 13.5H17.5837C17.5837 14.2124 17.5831 14.7017 17.5521 15.0809C17.5218 15.4514 17.4663 15.6504 17.3929 15.7945L18.0612 16.135L18.7294 16.4755C18.9285 16.0847 19.0093 15.6663 19.0471 15.2031C19.0842 14.7486 19.0837 14.1877 19.0837 13.5H18.3337ZM14.3337 17.5V18.25C15.0213 18.25 15.5822 18.2506 16.0367 18.2134C16.5 18.1756 16.9184 18.0949 17.3091 17.8958L16.9686 17.2275L16.6281 16.5593C16.4841 16.6327 16.2851 16.6882 15.9146 16.7184C15.5353 16.7494 15.0461 16.75 14.3337 16.75V17.5ZM18.0612 16.135L17.3929 15.7945C17.2251 16.1238 16.9574 16.3915 16.6281 16.5593L16.9686 17.2275L17.3091 17.8958C17.9207 17.5842 18.4178 17.087 18.7294 16.4755L18.0612 16.135ZM18.3337 6.5H19.0837C19.0837 5.81231 19.0842 5.25144 19.0471 4.79693C19.0093 4.33367 18.9285 3.91527 18.7294 3.52453L18.0612 3.86502L17.3929 4.20552C17.4663 4.34956 17.5218 4.54858 17.5521 4.91908C17.5831 5.29833 17.5837 5.78756 17.5837 6.5H18.3337ZM14.3337 2.5V3.25C15.0461 3.25 15.5353 3.25058 15.9146 3.28157C16.2851 3.31184 16.4841 3.36735 16.6281 3.44074L16.9686 2.77248L17.3091 2.10423C16.9184 1.90514 16.5 1.8244 16.0367 1.78655C15.5822 1.74942 15.0213 1.75 14.3337 1.75V2.5ZM18.0612 3.86502L18.7294 3.52453C18.4178 2.913 17.9207 2.41582 17.3091 2.10423L16.9686 2.77248L16.6281 3.44074C16.9574 3.60852 17.2251 3.87623 17.3929 4.20552L18.0612 3.86502ZM4.62256 6.66667V5.91667H1.66699V6.66667V7.41667H4.62256V6.66667ZM18.3337 6.66667V5.91667H15.3781V6.66667V7.41667H18.3337V6.66667ZM7.32596 7.66153L7.74199 7.0375L7.25738 6.71443L6.84136 7.33846L6.42533 7.9625L6.90994 8.28557L7.32596 7.66153ZM13.1593 7.33846L12.7433 6.71443L12.2587 7.0375L12.6747 7.66153L13.0907 8.28557L13.5753 7.9625L13.1593 7.33846ZM10.4559 8.33333V7.58333H9.54476V8.33333V9.08333H10.4559V8.33333ZM12.6747 7.66153L12.2587 7.0375C11.8626 7.30152 11.738 7.38136 11.6102 7.43717L11.9102 8.12454L12.2103 8.8119C12.4877 8.69081 12.7376 8.52095 13.0907 8.28557L12.6747 7.66153ZM10.4559 8.33333V9.08333C10.8802 9.08333 11.1824 9.08601 11.4804 9.0329L11.3488 8.29454L11.2172 7.55618C11.0798 7.58066 10.9319 7.58333 10.4559 7.58333V8.33333ZM11.9102 8.12454L11.6102 7.43717C11.4843 7.49213 11.3524 7.53207 11.2172 7.55618L11.3488 8.29454L11.4804 9.0329C11.7315 8.98813 11.9765 8.91395 12.2103 8.8119L11.9102 8.12454ZM7.32596 7.66153L6.90994 8.28557C7.26301 8.52095 7.51297 8.69081 7.79034 8.8119L8.0904 8.12454L8.39046 7.43717C8.26261 7.38136 8.13802 7.30152 7.74199 7.0375L7.32596 7.66153ZM9.54476 8.33333V7.58333C9.06879 7.58333 8.92083 7.58066 8.78349 7.55618L8.65188 8.29454L8.52026 9.0329C8.81822 9.08601 9.12042 9.08333 9.54476 9.08333V8.33333ZM8.0904 8.12454L7.79034 8.8119C8.02414 8.91395 8.26913 8.98813 8.52026 9.0329L8.65188 8.29454L8.78349 7.55618C8.64827 7.53207 8.51635 7.49213 8.39046 7.43717L8.0904 8.12454ZM15.3781 6.66667V5.91667C14.9538 5.91667 14.6515 5.91399 14.3536 5.9671L14.4852 6.70546L14.6168 7.44382C14.7542 7.41934 14.9021 7.41667 15.3781 7.41667V6.66667ZM13.1593 7.33846L13.5753 7.9625C13.9713 7.69848 14.0959 7.61863 14.2238 7.56282L13.9237 6.87546L13.6237 6.1881C13.3463 6.30918 13.0963 6.47905 12.7433 6.71443L13.1593 7.33846ZM14.4852 6.70546L14.3536 5.9671C14.1025 6.01187 13.8575 6.08604 13.6237 6.1881L13.9237 6.87546L14.2238 7.56282C14.3497 7.50787 14.4816 7.46793 14.6168 7.44382L14.4852 6.70546ZM4.62256 6.66667V7.41667C5.09853 7.41667 5.24649 7.41934 5.38382 7.44382L5.51544 6.70546L5.64705 5.9671C5.3491 5.91399 5.0469 5.91667 4.62256 5.91667V6.66667ZM6.84136 7.33846L7.25738 6.71443C6.90431 6.47905 6.65434 6.30918 6.37697 6.1881L6.07691 6.87546L5.77686 7.56282C5.9047 7.61863 6.0293 7.69848 6.42533 7.9625L6.84136 7.33846ZM5.51544 6.70546L5.38382 7.44382C5.51905 7.46793 5.65097 7.50787 5.77686 7.56282L6.07691 6.87546L6.37697 6.1881C6.14318 6.08604 5.89819 6.01187 5.64705 5.9671L5.51544 6.70546ZM10.0003 14.1667V14.9167H12.5003V14.1667V13.4167H10.0003V14.1667ZM5.00033 14.1667L5.53066 14.697L7.61399 12.6137L7.08366 12.0833L6.55333 11.553L4.47 13.6363L5.00033 14.1667ZM7.08366 12.0833L7.61399 11.553L5.53066 9.46967L5.00033 10L4.47 10.5303L6.55333 12.6137L7.08366 12.0833Z" fill="currentColor"/>
</svg>
