<svg width="46" height="46" viewBox="0 0 46 46" fill="none" xmlns="http://www.w3.org/2000/svg">
<path d="M1 23C1 10.8497 10.8497 1 23 1V1C35.1503 1 45 10.8497 45 23V23C45 35.1503 35.1503 45 23 45V45C10.8497 45 1 35.1503 1 23V23Z" fill="white"/>
<path d="M23 0.5C35.4264 0.5 45.5 10.5736 45.5 23C45.5 35.4264 35.4264 45.5 23 45.5C10.5736 45.5 0.5 35.4264 0.5 23C0.5 10.5736 10.5736 0.5 23 0.5Z" stroke="black" stroke-opacity="0.16"/>
<path d="M14.5 15H31.5C32.8807 15 34 16.1193 34 17.5V25.5C34 26.8807 32.8807 28 31.5 28H14.5C13.1193 28 12 26.8807 12 25.5V17.5C12 16.1193 13.1193 15 14.5 15Z" stroke="#505454" stroke-linecap="round" stroke-linejoin="round"/>
<circle cx="16.5" cy="21.5" r="1.1" fill="#4C48FF"/>
<circle cx="20" cy="21.5" r="1.1" fill="#4C48FF"/>
<circle cx="23.5" cy="21.5" r="1.1" fill="#4C48FF"/>
<path d="M31 24.5L35.2 26.1V29.3C35.2 32.3 31 34 31 34C31 34 26.8 32.3 26.8 29.3V26.1L31 24.5Z" fill="white" stroke="#505454" stroke-linecap="round" stroke-linejoin="round"/>
<path d="M29.3 29.6L30.5 30.8L32.7 28.4" stroke="#4C48FF" stroke-linecap="round" stroke-linejoin="round"/>
</svg>
