<svg width="46" height="46" viewBox="0 0 46 46" fill="none" xmlns="http://www.w3.org/2000/svg">
<path d="M1 23C1 10.8497 10.8497 1 23 1V1C35.1503 1 45 10.8497 45 23V23C45 35.1503 35.1503 45 23 45V45C10.8497 45 1 35.1503 1 23V23Z" fill="white"/>
<path d="M23 0.5C35.4264 0.5 45.5 10.5736 45.5 23C45.5 35.4264 35.4264 45.5 23 45.5C10.5736 45.5 0.5 35.4264 0.5 23C0.5 10.5736 10.5736 0.5 23 0.5Z" stroke="black" stroke-opacity="0.16"/>
<g clip-path="url(#clip0_105_2996)">
<path d="M12.0761 20.3096C11.7268 18.6662 11.5521 17.8444 11.7385 17.1488C11.9025 16.5368 12.256 15.9925 12.7483 15.5938C13.3081 15.1405 14.1298 14.9659 15.7732 14.6165L18.9148 13.9488C19.6326 13.7962 19.9914 13.7199 20.3464 13.7292C20.6611 13.7375 20.9725 13.7952 21.2693 13.9003C21.604 14.0188 21.9117 14.2186 22.5271 14.6183L26.3085 17.0739C26.9239 17.4736 27.2316 17.6734 27.476 17.931C27.6927 18.1593 27.8721 18.4203 28.0076 18.7045C28.1605 19.025 28.2368 19.3838 28.3893 20.1016L29.8887 27.1558C30.2381 28.7992 30.4127 29.6209 30.2263 30.3166C30.0623 30.9286 29.7089 31.4729 29.2165 31.8716C28.6568 32.3249 27.8351 32.4995 26.1916 32.8488L19.9315 34.1795C18.288 34.5288 17.4663 34.7035 16.7706 34.5171C16.1587 34.3531 15.6143 33.9996 15.2156 33.5072C14.7624 32.9475 14.5877 32.1258 14.2384 30.4823L12.0761 20.3096Z" fill="white"/>
<path d="M20.9156 13.799L21.7744 17.8392C21.8909 18.387 21.9491 18.661 22.1002 18.8475C22.2331 19.0116 22.4145 19.1295 22.6185 19.1841C22.8504 19.2463 23.1243 19.1881 23.6721 19.0716L27.7124 18.2128M28.3893 20.1016L29.8887 27.1558C30.2381 28.7992 30.4127 29.6209 30.2263 30.3166C30.0623 30.9286 29.7089 31.4729 29.2165 31.8716C28.6568 32.3249 27.8351 32.4995 26.1916 32.8488L19.9315 34.1795C18.288 34.5288 17.4663 34.7035 16.7706 34.5171C16.1587 34.3531 15.6143 33.9996 15.2156 33.5072C14.7624 32.9475 14.5877 32.1258 14.2384 30.4823L12.0761 20.3096C11.7268 18.6662 11.5521 17.8444 11.7385 17.1488C11.9025 16.5368 12.256 15.9925 12.7483 15.5938C13.3081 15.1405 14.1298 14.9659 15.7732 14.6165L18.9148 13.9488C19.6326 13.7962 19.9914 13.7199 20.3464 13.7292C20.6611 13.7375 20.9725 13.7952 21.2693 13.9003C21.604 14.0188 21.9117 14.2186 22.5271 14.6183L26.3085 17.0739C26.9239 17.4736 27.2316 17.6734 27.476 17.931C27.6927 18.1593 27.8721 18.4203 28.0076 18.7045C28.1605 19.025 28.2368 19.3838 28.3893 20.1016Z" stroke="#4C48FF" stroke-linecap="round" stroke-linejoin="round"/>
</g>
<path d="M17.25 14.8001C17.25 13.12 17.25 12.2799 17.577 11.6382C17.8646 11.0737 18.3235 10.6147 18.888 10.3271C19.5298 10.0001 20.3698 10.0001 22.05 10.0001H25.2618C25.9955 10.0001 26.3624 10.0001 26.7077 10.083C27.0138 10.1565 27.3064 10.2777 27.5749 10.4422C27.8776 10.6277 28.137 10.8872 28.6559 11.406L31.8441 14.5942C32.363 15.1131 32.6224 15.3725 32.8079 15.6753C32.9724 15.9437 33.0936 16.2363 33.1671 16.5424C33.25 16.8877 33.25 17.2546 33.25 17.9883V25.2001C33.25 26.8803 33.25 27.7204 32.923 28.3621C32.6354 28.9266 32.1765 29.3855 31.612 29.6731C30.9702 30.0001 30.1302 30.0001 28.45 30.0001H22.05C20.3698 30.0001 19.5298 30.0001 18.888 29.6731C18.3235 29.3855 17.8646 28.9266 17.577 28.3621C17.25 27.7204 17.25 26.8803 17.25 25.2001V14.8001Z" fill="white"/>
<path d="M27.25 25.5001L29.75 23.0001L27.25 20.5001" fill="white"/>
<path d="M23.25 20.5001L20.75 23.0001L23.25 25.5001" fill="white"/>
<path d="M27.25 10.2697V14.4002C27.25 14.9602 27.25 15.2403 27.359 15.4542C27.4549 15.6423 27.6078 15.7953 27.796 15.8912C28.0099 16.0002 28.2899 16.0002 28.85 16.0002H32.9805M27.25 25.5001L29.75 23.0001L27.25 20.5001M23.25 20.5001L20.75 23.0001L23.25 25.5001M33.25 17.9883V25.2001C33.25 26.8803 33.25 27.7204 32.923 28.3621C32.6354 28.9266 32.1765 29.3855 31.612 29.6731C30.9702 30.0001 30.1302 30.0001 28.45 30.0001H22.05C20.3698 30.0001 19.5298 30.0001 18.888 29.6731C18.3235 29.3855 17.8646 28.9266 17.577 28.3621C17.25 27.7204 17.25 26.8803 17.25 25.2001V14.8001C17.25 13.12 17.25 12.2799 17.577 11.6382C17.8646 11.0737 18.3235 10.6147 18.888 10.3271C19.5298 10.0001 20.3698 10.0001 22.05 10.0001H25.2618C25.9955 10.0001 26.3624 10.0001 26.7077 10.083C27.0138 10.1565 27.3064 10.2777 27.5749 10.4422C27.8776 10.6277 28.137 10.8872 28.6559 11.406L31.8441 14.5942C32.363 15.1131 32.6224 15.3725 32.8079 15.6753C32.9724 15.9437 33.0936 16.2363 33.1671 16.5424C33.25 16.8877 33.25 17.2546 33.25 17.9883Z" stroke="#505454" stroke-linecap="round" stroke-linejoin="round"/>
<defs>
<clipPath id="clip0_105_2996">
<rect width="24" height="24" fill="white" transform="translate(6.75 14.4899) rotate(-12)"/>
</clipPath>
</defs>
</svg>
