<svg preserveAspectRatio="none" width="100%" height="100%" overflow="visible" style="display: block;" viewBox="0 0 277.128 160" fill="none" xmlns="http://www.w3.org/2000/svg">
<g id="cube-group">
<path id="top-face" opacity="0.9" d="M134.234 2.50002C136.625 1.11931 140.503 1.11931 142.894 2.50002L272.798 77.5C275.189 78.8807 275.189 81.1193 272.798 82.5L142.894 157.5C140.503 158.881 136.625 158.881 134.234 157.5L4.33003 82.5C1.93857 81.1193 1.93857 78.8807 4.33003 77.5L134.234 2.50002Z" fill="var(--fill-0, #5B68FF)" stroke="var(--stroke-0, #3C3ADD)" stroke-width="0.8"/>
<path id="Symbol" d="M142.479 78.6125C142.774 78.7832 142.98 78.9986 143.071 79.2331C143.163 79.4676 143.136 79.7115 142.994 79.9358L128.867 102.136L101.733 86.4709L140.186 78.3142C140.574 78.2324 140.997 78.2175 141.404 78.2702C141.81 78.323 142.183 78.4419 142.479 78.6125ZM162.532 67.031C167.25 69.7555 167.3 74.1442 162.642 76.8337C157.983 79.5232 150.381 79.4951 145.662 76.7707C140.943 74.0462 140.894 69.6571 145.553 66.9675C150.211 64.2781 157.813 64.3065 162.532 67.031Z" fill="var(--fill-0, white)"/>
</g>
</svg>
