<svg width="640" height="512" viewBox="0 0 640 512" fill="none" xmlns="http://www.w3.org/2000/svg">
<g clip-path="url(#clip0_118_3257)">
<path opacity="0.07" d="M582.23 -257.914H545.614V-340H544.614V-257.914H507.961V-340H506.961V-257.914H470.346V-340H469.346V-257.914H432.699V-340H431.699V-257.914H395.076V-340H394.076V-257.914H357.422V-340H356.422V-257.914H319.805V-340H318.805V-257.914H282.191V-340H281.191V-257.914H244.537V-340H243.537V-257.914H206.928V-340H205.928V-257.914H169.273V-340H168.273V-257.914H131.658V-340H130.658V-257.914H94.0039V-340H93.0039V-257.914H56.7441V-340H55.7441V-257.914H0V-256.914H55.7441V-172.089H0V-171.089H55.7441V-86.3662H0V-85.3662H55.7441V-0.644531H0V0.355469H55.7441V85.0771H0V86.0771H55.7441V170.8H0V171.8H55.7441V256.521H0V257.521H55.7441V342.242H0V343.242H55.7441V427.965H0V428.965H55.7441V511.862H56.7441V428.965H93.0039V511.862H94.0039V428.965H130.658V511.862H131.658V428.965H168.273V511.862H169.273V428.965H205.928V511.862H206.928V428.965H243.537V511.862H244.537V428.965H281.191V511.862H282.191V428.965H318.805V511.862H319.805V428.965H356.422V511.862H357.422V428.965H394.076V511.862H395.076V428.965H431.699V511.862H432.699V428.965H469.346V511.862H470.346V428.965H506.961V511.862H507.961V428.965H544.614V511.862H545.614V428.965H582.23V511.862H583.23V428.965H639.758V427.965H583.23V343.242L639.758 343.243V342.243L583.23 342.242V257.521L639.758 257.522V256.522L583.23 256.521V171.8H639.758V170.8H583.23V86.0771L639.758 86.0781V85.0781L583.23 85.0771V0.355469H639.758V-0.644531H583.23V-85.3662H639.758V-86.3662H583.23V-171.089L639.758 -171.088V-172.088L583.23 -172.089V-256.914H639.758V-257.914H583.23V-340H582.23V-257.914ZM93.0039 343.242V427.965H56.7441V343.242H93.0039ZM582.23 427.965H545.614V343.242H582.23V427.965ZM544.614 427.965H507.961V343.242H544.614V427.965ZM506.961 427.965H470.346V343.242H506.961V427.965ZM469.346 427.965H432.699V343.242H469.346V427.965ZM431.699 427.965H395.076V343.242H431.699V427.965ZM394.076 427.965H357.422V343.242H394.076V427.965ZM356.422 427.965H319.805V343.242H356.422V427.965ZM318.805 427.965H282.191V343.242H318.805V427.965ZM281.191 427.965H244.537V343.242H281.191V427.965ZM243.537 427.965H206.928V343.242H243.537V427.965ZM205.928 427.965H169.273V343.242H205.928V427.965ZM168.273 427.965H131.658V343.242H168.273V427.965ZM130.658 427.965H94.0039V343.242H130.658V427.965ZM93.0039 257.521V342.242H56.7441V257.521H93.0039ZM582.23 342.242H545.614V257.521H582.23V342.242ZM544.614 342.242H507.961V257.521H544.614V342.242ZM506.961 342.242H470.346V257.521H506.961V342.242ZM469.346 342.242H432.699V257.521H469.346V342.242ZM431.699 342.242H395.076V257.521H431.699V342.242ZM394.076 342.242H357.422V257.521H394.076V342.242ZM356.422 342.242H319.805V257.521H356.422V342.242ZM318.805 342.242H282.191V257.521H318.805V342.242ZM281.191 342.242H244.537V257.521H281.191V342.242ZM243.537 342.242H206.928V257.521H243.537V342.242ZM205.928 342.242H169.273V257.521H205.928V342.242ZM168.273 342.242H131.658V257.521H168.273V342.242ZM130.658 342.242H94.0039V257.521H130.658V342.242ZM93.0039 171.8V256.521H56.7441V171.8H93.0039ZM582.23 256.521H545.614V171.8H582.23V256.521ZM544.614 256.521H507.961V171.8H544.614V256.521ZM506.961 256.521H470.346V171.8H506.961V256.521ZM469.346 256.521H432.699V171.8H469.346V256.521ZM431.699 256.521H395.076V171.8H431.699V256.521ZM394.076 256.521H357.422V171.8H394.076V256.521ZM356.422 256.521H319.805V171.8H356.422V256.521ZM318.805 256.521H282.191V171.8H318.805V256.521ZM281.191 256.521H244.537V171.8H281.191V256.521ZM243.537 256.521H206.928V171.8H243.537V256.521ZM205.928 256.521H169.273V171.8H205.928V256.521ZM168.273 256.521H131.658V171.8H168.273V256.521ZM130.658 256.521H94.0039V171.8H130.658V256.521ZM93.0039 86.0771V170.8H56.7441V86.0771H93.0039ZM582.23 170.8H545.614V86.0771H582.23V170.8ZM544.614 170.8H507.961V86.0771H544.614V170.8ZM506.961 170.8H470.346V86.0771H506.961V170.8ZM469.346 170.8H432.699V86.0771H469.346V170.8ZM431.699 170.8H395.076V86.0771H431.699V170.8ZM394.076 170.8H357.422V86.0771H394.076V170.8ZM356.422 170.8H319.805V86.0771H356.422V170.8ZM318.805 170.8H282.191V86.0771H318.805V170.8ZM281.191 170.8H244.537V86.0771H281.191V170.8ZM243.537 170.8H206.928V86.0771H243.537V170.8ZM205.928 170.8H169.273V86.0771H205.928V170.8ZM168.273 170.8H131.658V86.0771H168.273V170.8ZM130.658 170.8H94.0039V86.0771H130.658V170.8ZM93.0039 0.355469V85.0771H56.7441V0.355469H93.0039ZM582.23 85.0771H545.614V0.355469H582.23V85.0771ZM544.614 85.0771H507.961V0.355469H544.614V85.0771ZM506.961 85.0771H470.346V0.355469H506.961V85.0771ZM469.346 85.0771H432.699V0.355469H469.346V85.0771ZM431.699 85.0771H395.076V0.355469H431.699V85.0771ZM394.076 85.0771H357.422V0.355469H394.076V85.0771ZM356.422 85.0771H319.805V0.355469H356.422V85.0771ZM318.805 85.0771H282.191V0.355469H318.805V85.0771ZM281.191 85.0771H244.537V0.355469H281.191V85.0771ZM243.537 85.0771H206.928V0.355469H243.537V85.0771ZM205.928 85.0771H169.273V0.355469H205.928V85.0771ZM168.273 85.0771H131.658V0.355469H168.273V85.0771ZM130.658 85.0771H94.0039V0.355469H130.658V85.0771ZM93.0039 -85.3662V-0.644531H56.7441V-85.3662H93.0039ZM582.23 -0.644531H545.614V-85.3662H582.23V-0.644531ZM544.614 -0.644531H507.961V-85.3662H544.614V-0.644531ZM506.961 -0.644531H470.346V-85.3662H506.961V-0.644531ZM469.346 -0.644531H432.699V-85.3662H469.346V-0.644531ZM431.699 -0.644531H395.076V-85.3662H431.699V-0.644531ZM394.076 -0.644531H357.422V-85.3662H394.076V-0.644531ZM356.422 -0.644531H319.805V-85.3662H356.422V-0.644531ZM318.805 -0.644531H282.191V-85.3662H318.805V-0.644531ZM281.191 -0.644531H244.537V-85.3662H281.191V-0.644531ZM243.537 -0.644531H206.928V-85.3662H243.537V-0.644531ZM205.928 -0.644531H169.273V-85.3662H205.928V-0.644531ZM168.273 -0.644531H131.658V-85.3662H168.273V-0.644531ZM130.658 -0.644531H94.0039V-85.3662H130.658V-0.644531ZM93.0039 -171.089V-86.3662H56.7441V-171.089H93.0039ZM582.23 -86.3662H545.614V-171.089H582.23V-86.3662ZM544.614 -86.3662H507.961V-171.089H544.614V-86.3662ZM506.961 -86.3662H470.346V-171.089H506.961V-86.3662ZM469.346 -86.3662H432.699V-171.089H469.346V-86.3662ZM431.699 -86.3662H395.076V-171.089H431.699V-86.3662ZM394.076 -86.3662H357.422V-171.089H394.076V-86.3662ZM356.422 -86.3662H319.805V-171.089H356.422V-86.3662ZM318.805 -86.3662H282.191V-171.089H318.805V-86.3662ZM281.191 -86.3662H244.537V-171.089H281.191V-86.3662ZM243.537 -86.3662H206.928V-171.089H243.537V-86.3662ZM205.928 -86.3662H169.273V-171.089H205.928V-86.3662ZM168.273 -86.3662H131.658V-171.089H168.273V-86.3662ZM130.658 -86.3662H94.0039V-171.089H130.658V-86.3662ZM93.0039 -256.914V-172.089H56.7441V-256.914H93.0039ZM582.23 -172.089H545.614V-256.914H582.23V-172.089ZM544.614 -172.089H507.961V-256.914H544.614V-172.089ZM506.961 -172.089H470.346V-256.914H506.961V-172.089ZM469.346 -172.089H432.699V-256.914H469.346V-172.089ZM431.699 -172.089H395.076V-256.914H431.699V-172.089ZM394.076 -172.089H357.422V-256.914H394.076V-172.089ZM356.422 -172.089H319.805V-256.914H356.422V-172.089ZM318.805 -172.089H282.191V-256.914H318.805V-172.089ZM281.191 -172.089H244.537V-256.914H281.191V-172.089ZM243.537 -172.089H206.928V-256.914H243.537V-172.089ZM205.928 -172.089H169.273V-256.914H205.928V-172.089ZM168.273 -172.089H131.658V-256.914H168.273V-172.089ZM130.658 -172.089H94.0039V-256.914H130.658V-172.089Z" fill="url(#paint0_radial_118_3257)"/>
</g>
<defs>
<radialGradient id="paint0_radial_118_3257" cx="0" cy="0" r="1" gradientUnits="userSpaceOnUse" gradientTransform="translate(320 3.50016) rotate(89.4427) scale(514.025 515.515)">
<stop stop-color="white"/>
<stop offset="1" stop-color="white" stop-opacity="0"/>
</radialGradient>
<clipPath id="clip0_118_3257">
<rect width="640" height="512" fill="white"/>
</clipPath>
</defs>
</svg>
