<svg width="278" height="256" viewBox="0 0 278 256" fill="none" xmlns="http://www.w3.org/2000/svg">
<path opacity="0.9" d="M134.234 98.5C136.626 97.1193 140.503 97.1193 142.895 98.5L272.798 173.5C275.19 174.881 275.19 177.119 272.798 178.5L142.895 253.5C140.503 254.881 136.626 254.881 134.234 253.5L4.33052 178.5C1.93905 177.119 1.93905 174.881 4.33052 173.5L134.234 98.5Z" fill="#424545" stroke="#818588" stroke-width="0.8"/>
<path opacity="0.9" d="M134.234 50.5C136.626 49.1193 140.503 49.1193 142.895 50.5L272.798 125.5C275.19 126.881 275.19 129.119 272.798 130.5L142.895 205.5C140.503 206.881 136.626 206.881 134.234 205.5L4.33052 130.5C1.93905 129.119 1.93905 126.881 4.33052 125.5L134.234 50.5Z" fill="#505454" stroke="#818588" stroke-width="0.8"/>
<path opacity="0.9" d="M134.234 2.5C136.626 1.11929 140.503 1.11929 142.895 2.5L272.798 77.5C275.19 78.8807 275.19 81.1193 272.798 82.5L142.895 157.5C140.503 158.881 136.626 158.881 134.234 157.5L4.33052 82.5C1.93905 81.1193 1.93905 78.8807 4.33052 77.5L134.234 2.5Z" fill="#4C48FF" stroke="#5B68FF" stroke-width="0.8"/>
<path d="M142.479 78.6125C142.774 78.7831 142.98 78.9986 143.071 79.2331C143.163 79.4676 143.136 79.7115 142.994 79.9357L128.867 102.136L101.733 86.4709L140.186 78.3141C140.574 78.2324 140.997 78.2174 141.404 78.2702C141.81 78.323 142.183 78.4419 142.479 78.6125ZM162.532 67.0309C167.25 69.7554 167.3 74.1442 162.642 76.8337C157.983 79.5232 150.381 79.4951 145.662 76.7707C140.943 74.0462 140.894 69.657 145.553 66.9675C150.211 64.278 157.813 64.3065 162.532 67.0309Z" fill="white"/>
</svg>
