<svg width="278" height="256" viewBox="0 0 278 256" fill="none" xmlns="http://www.w3.org/2000/svg">
<path opacity="0.9" d="M134.233 98.4999C136.625 97.1192 140.502 97.1192 142.894 98.4999L272.797 173.5C275.189 174.881 275.189 177.119 272.797 178.5L142.894 253.5C140.502 254.881 136.625 254.881 134.233 253.5L4.32954 178.5C1.93808 177.119 1.93808 174.881 4.32954 173.5L134.233 98.4999Z" fill="#DFE2E5" stroke="#D2D5D7" stroke-width="0.8"/>
<path opacity="0.9" d="M134.233 50.5C136.625 49.1193 140.502 49.1193 142.894 50.5L272.797 125.5C275.189 126.881 275.189 129.119 272.797 130.5L142.894 205.5C140.502 206.881 136.625 206.881 134.233 205.5L4.32954 130.5C1.93808 129.119 1.93808 126.881 4.32954 125.5L134.233 50.5Z" fill="#5B68FF" stroke="#3C3ADD" stroke-width="0.8"/>
<path opacity="0.9" d="M134.233 2.50003C136.625 1.11932 140.502 1.11932 142.894 2.50003L272.797 77.5C275.189 78.8807 275.189 81.1193 272.797 82.5L142.894 157.5C140.502 158.881 136.625 158.881 134.233 157.5L4.32954 82.5C1.93808 81.1193 1.93808 78.8807 4.32954 77.5L134.233 2.50003Z" fill="#D2D5D7" stroke="#B2B7BC" stroke-width="0.8"/>
<path d="M142.479 78.6125C142.774 78.7832 142.98 78.9986 143.071 79.2331C143.163 79.4676 143.136 79.7115 142.994 79.9358L128.867 102.136L101.733 86.4709L140.186 78.3142C140.574 78.2324 140.997 78.2175 141.404 78.2702C141.81 78.323 142.183 78.4419 142.479 78.6125ZM162.532 67.031C167.25 69.7555 167.3 74.1442 162.642 76.8337C157.983 79.5232 150.381 79.4951 145.662 76.7707C140.943 74.0462 140.894 69.657 145.553 66.9675C150.211 64.2781 157.813 64.3065 162.532 67.031Z" fill="white"/>
</svg>
