<svg width="149" height="170" viewBox="0 0 149 170" fill="none" xmlns="http://www.w3.org/2000/svg">
<path d="M74.4463 60.2402L94.4331 71.7798L74.4463 83.3193L54.4595 71.7798L74.4463 60.2402Z" fill="#818588"/>
<path d="M54.4326 71.7798L74.4194 83.3193V106.398L54.4326 94.8588V71.7798Z" fill="#505454"/>
<path d="M74.4199 83.3188L94.4067 71.7793V94.8584L74.4199 106.398V83.3188Z" fill="#424545"/>
<path d="M101.729 76.0112L121.715 87.5507L101.729 99.0903L81.7417 87.5507L101.729 76.0112Z" fill="#818588"/>
<path d="M81.7148 87.5508L101.702 99.0903V122.169L81.7148 110.63V87.5508Z" fill="#505454"/>
<path d="M101.702 99.0898L121.689 87.5503V110.629L101.702 122.169V99.0898Z" fill="#424545"/>
<path d="M47.2705 76.0112L67.2573 87.5507L47.2705 99.0903L27.2837 87.5507L47.2705 76.0112Z" fill="#818588"/>
<path d="M27.2568 87.5508L47.2436 99.0903V122.169L27.2568 110.63V87.5508Z" fill="#505454"/>
<path d="M47.2441 99.0898L67.2309 87.5503V110.629L47.2441 122.169V99.0898Z" fill="#424545"/>
<path d="M128.958 91.7031L148.945 103.243L128.958 114.782L108.971 103.243L128.958 91.7031Z" fill="#5B68FF"/>
<path d="M108.944 103.243L128.931 114.782V137.861L108.944 126.322V103.243Z" fill="#3C3ADD"/>
<path d="M128.932 114.782L148.918 103.242V126.321L128.932 137.861V114.782Z" fill="#2D2CBA"/>
<path d="M74.4463 91.7031L94.4331 103.243L74.4463 114.782L54.4595 103.243L74.4463 91.7031Z" fill="#818588"/>
<path d="M54.4326 103.243L74.4194 114.782V137.861L54.4326 126.322V103.243Z" fill="#505454"/>
<path d="M74.4199 114.782L94.4067 103.242V126.321L74.4199 137.861V114.782Z" fill="#424545"/>
<path d="M101.729 107.453L121.715 118.992L101.729 130.532L81.7417 118.992L101.729 107.453Z" fill="#5B68FF"/>
<path d="M81.7148 118.992L101.702 130.532V153.611L81.7148 142.071V118.992Z" fill="#3C3ADD"/>
<path d="M101.702 130.531L121.689 118.992V142.071L101.702 153.61V130.531Z" fill="#2D2CBA"/>
<path d="M20.0137 91.7031L40.0005 103.243L20.0137 114.782L0.0268857 103.243L20.0137 91.7031Z" fill="#5B68FF"/>
<path d="M0 103.243L19.9868 114.782V137.861L0 126.322V103.243Z" fill="#3C3ADD"/>
<path d="M19.9873 114.782L39.9741 103.242V126.321L19.9873 137.861V114.782Z" fill="#2D2CBA"/>
<path d="M47.2432 107.453L67.23 118.992L47.2432 130.532L27.2564 118.992L47.2432 107.453Z" fill="#5B68FF"/>
<path d="M27.2295 118.992L47.2163 130.532V153.611L27.2295 142.071V118.992Z" fill="#3C3ADD"/>
<path d="M47.2168 130.531L67.2036 118.992V142.071L47.2168 153.61V130.531Z" fill="#2D2CBA"/>
<path d="M74.4727 123.202L94.4594 134.742L74.4727 146.281L54.4859 134.742L74.4727 123.202Z" fill="#5B68FF"/>
<path d="M54.459 134.742L74.4458 146.281V169.36L54.459 157.821V134.742Z" fill="#3C3ADD"/>
<path d="M74.4463 146.281L94.4331 134.741V157.82L74.4463 169.36V146.281Z" fill="#2D2CBA"/>
<path d="M74.4463 30.1201L94.4331 41.6596L74.4463 53.1991L54.4595 41.6596L74.4463 30.1201Z" fill="#818588"/>
<path d="M54.4326 41.6597L74.4194 53.1992V76.2782L54.4326 64.7387V41.6597Z" fill="#505454"/>
<path d="M74.4199 53.1987L94.4067 41.6592V64.7382L74.4199 76.2778V53.1987Z" fill="#424545"/>
<path d="M101.729 45.8911L121.715 57.4306L101.729 68.9701L81.7417 57.4306L101.729 45.8911Z" fill="#818588"/>
<path d="M81.7148 57.4307L101.702 68.9702V92.0492L81.7148 80.5097V57.4307Z" fill="#505454"/>
<path d="M101.702 68.9697L121.689 57.4302V80.5092L101.702 92.0488V68.9697Z" fill="#424545"/>
<path d="M47.2705 45.8911L67.2573 57.4306L47.2705 68.9701L27.2837 57.4306L47.2705 45.8911Z" fill="#818588"/>
<path d="M27.2568 57.4307L47.2436 68.9702V92.0492L27.2568 80.5097V57.4307Z" fill="#505454"/>
<path d="M47.2441 68.9697L67.2309 57.4302V80.5092L47.2441 92.0488V68.9697Z" fill="#424545"/>
<path d="M128.958 61.583L148.945 73.1225L128.958 84.662L108.971 73.1225L128.958 61.583Z" fill="#5B68FF"/>
<path d="M108.944 73.1226L128.931 84.6621V107.741L108.944 96.2016V73.1226Z" fill="#3C3ADD"/>
<path d="M128.932 84.6616L148.918 73.1221V96.2011L128.932 107.741V84.6616Z" fill="#2D2CBA"/>
<path d="M74.4463 61.583L94.4331 73.1225L74.4463 84.662L54.4595 73.1225L74.4463 61.583Z" fill="#818588"/>
<path d="M54.4326 73.1226L74.4194 84.6621V107.741L54.4326 96.2016V73.1226Z" fill="#505454"/>
<path d="M74.4199 84.6616L94.4067 73.1221V96.2011L74.4199 107.741V84.6616Z" fill="#424545"/>
<path d="M101.729 77.3325L121.715 88.872L101.729 100.412L81.7417 88.872L101.729 77.3325Z" fill="#5B68FF"/>
<path d="M81.7148 88.8721L101.702 100.412V123.491L81.7148 111.951V88.8721Z" fill="#3C3ADD"/>
<path d="M101.702 100.411L121.689 88.8716V111.951L101.702 123.49V100.411Z" fill="#2D2CBA"/>
<path d="M20.0137 61.583L40.0005 73.1225L20.0137 84.662L0.0268857 73.1225L20.0137 61.583Z" fill="#5B68FF"/>
<path d="M0 73.1226L19.9868 84.6621V107.741L0 96.2016V73.1226Z" fill="#3C3ADD"/>
<path d="M19.9873 84.6616L39.9741 73.1221V96.2011L19.9873 107.741V84.6616Z" fill="#2D2CBA"/>
<path d="M47.2432 77.3325L67.23 88.872L47.2432 100.412L27.2564 88.872L47.2432 77.3325Z" fill="#5B68FF"/>
<path d="M27.2295 88.8721L47.2163 100.412V123.491L27.2295 111.951V88.8721Z" fill="#3C3ADD"/>
<path d="M47.2168 100.411L67.2036 88.8716V111.951L47.2168 123.49V100.411Z" fill="#2D2CBA"/>
<path d="M74.4727 93.082L94.4594 104.622L74.4727 116.161L54.4859 104.622L74.4727 93.082Z" fill="#5B68FF"/>
<path d="M54.459 104.622L74.4458 116.161V139.24L54.459 127.701V104.622Z" fill="#3C3ADD"/>
<path d="M74.4463 116.161L94.4331 104.621V127.7L74.4463 139.24V116.161Z" fill="#2D2CBA"/>
<path d="M74.4463 0L94.4331 11.5395L74.4463 23.079L54.4595 11.5395L74.4463 0Z" fill="#818588"/>
<path d="M54.4326 11.5396L74.4194 23.0791V46.1581L54.4326 34.6186V11.5396Z" fill="#505454"/>
<path d="M74.4199 23.0786L94.4067 11.5391V34.6181L74.4199 46.1576V23.0786Z" fill="#424545"/>
<path d="M101.729 15.771L121.715 27.3105L101.729 38.85L81.7417 27.3105L101.729 15.771Z" fill="#818588"/>
<path d="M81.7148 27.3105L101.702 38.8501V61.9291L81.7148 50.3896V27.3105Z" fill="#505454"/>
<path d="M101.702 38.8496L121.689 27.3101V50.3891L101.702 61.9286V38.8496Z" fill="#424545"/>
<path d="M47.2705 15.771L67.2573 27.3105L47.2705 38.85L27.2837 27.3105L47.2705 15.771Z" fill="#818588"/>
<path d="M27.2568 27.3105L47.2436 38.8501V61.9291L27.2568 50.3896V27.3105Z" fill="#505454"/>
<path d="M47.2441 38.8496L67.2309 27.3101V50.3891L47.2441 61.9286V38.8496Z" fill="#424545"/>
<path d="M128.958 31.4629L148.945 43.0024L128.958 54.5419L108.971 43.0024L128.958 31.4629Z" fill="#818588"/>
<path d="M108.944 43.0024L128.931 54.542V77.621L108.944 66.0815V43.0024Z" fill="#505454"/>
<path d="M128.932 54.5415L148.918 43.002V66.081L128.932 77.6205V54.5415Z" fill="#424545"/>
<path d="M74.4463 31.4629L94.4331 43.0024L74.4463 54.5419L54.4595 43.0024L74.4463 31.4629Z" fill="#818588"/>
<path d="M54.4326 43.0024L74.4194 54.542V77.621L54.4326 66.0815V43.0024Z" fill="#505454"/>
<path d="M74.4199 54.5415L94.4067 43.002V66.081L74.4199 77.6205V54.5415Z" fill="#424545"/>
<path d="M101.729 47.2124L121.715 58.7519L101.729 70.2914L81.7417 58.7519L101.729 47.2124Z" fill="#818588"/>
<path d="M81.7148 58.752L101.702 70.2915V93.3705L81.7148 81.831V58.752Z" fill="#505454"/>
<path d="M101.702 70.291L121.689 58.7515V81.8305L101.702 93.37V70.291Z" fill="#424545"/>
<path d="M20.0137 31.4629L40.0005 43.0024L20.0137 54.5419L0.0268857 43.0024L20.0137 31.4629Z" fill="#818588"/>
<path d="M0 43.0024L19.9868 54.542V77.621L0 66.0815V43.0024Z" fill="#505454"/>
<path d="M19.9873 54.5415L39.9741 43.002V66.081L19.9873 77.6205V54.5415Z" fill="#424545"/>
<path d="M47.2432 47.2124L67.23 58.7519L47.2432 70.2914L27.2564 58.7519L47.2432 47.2124Z" fill="#818588"/>
<path d="M27.2295 58.752L47.2163 70.2915V93.3705L27.2295 81.831V58.752Z" fill="#505454"/>
<path d="M47.2168 70.291L67.2036 58.7515V81.8305L47.2168 93.37V70.291Z" fill="#424545"/>
<path d="M74.4727 62.9619L94.4594 74.5014L74.4727 86.0409L54.4859 74.5014L74.4727 62.9619Z" fill="#818588"/>
<path d="M54.459 74.5015L74.4458 86.041V109.12L54.459 97.5805V74.5015Z" fill="#505454"/>
<path d="M74.4463 86.0405L94.4331 74.501V97.58L74.4463 109.12V86.0405Z" fill="#424545"/>
</svg>
