<svg width="46" height="46" viewBox="0 0 46 46" fill="none" xmlns="http://www.w3.org/2000/svg">
<path d="M1 23C1 10.8497 10.8497 1 23 1V1C35.1503 1 45 10.8497 45 23V23C45 35.1503 35.1503 45 23 45V45C10.8497 45 1 35.1503 1 23V23Z" fill="white"/>
<path d="M23 0.5C35.4264 0.5 45.5 10.5736 45.5 23C45.5 35.4264 35.4264 45.5 23 45.5C10.5736 45.5 0.5 35.4264 0.5 23C0.5 10.5736 10.5736 0.5 23 0.5Z" stroke="black" stroke-opacity="0.16"/>
<path d="M31.5008 16.9997H13.5M13.5 19.9998H16.0468C16.587 19.9998 16.8571 19.9998 17.1183 20.0464C17.3501 20.0877 17.5763 20.1562 17.7921 20.2504C18.0352 20.3565 18.26 20.5063 18.7095 20.806L19.291 21.1937C19.7405 21.4934 19.9653 21.6432 20.2084 21.7493C20.4242 21.8435 20.6504 21.912 20.8822 21.9533C21.1434 21.9999 21.4135 21.9999 21.9537 21.9999H23.0471C23.5873 21.9999 23.8574 21.9999 24.1186 21.9533C24.3504 21.912 24.5766 21.8435 24.7924 21.7493C25.0356 21.6432 25.2603 21.4934 25.7098 21.1937L26.2913 20.806C26.7408 20.5063 26.9656 20.3565 27.2087 20.2504C27.4245 20.1562 27.6507 20.0877 27.8825 20.0464C28.1437 19.9998 28.4138 19.9998 28.954 19.9998H31.5008M13.5 16.6997L13.5 23.3C13.5 24.4201 13.5 24.9802 13.718 25.408C13.9098 25.7844 14.2157 26.0903 14.5921 26.2821C15.0199 26.5001 15.58 26.5001 16.7001 26.5001L28.3007 26.5001C29.4208 26.5001 29.9809 26.5001 30.4087 26.2821C30.7851 26.0903 31.0911 25.7844 31.2828 25.408C31.5008 24.9802 31.5008 24.4201 31.5008 23.3V16.6997C31.5008 15.5795 31.5008 15.0194 31.2828 14.5916C31.0911 14.2152 30.7851 13.9093 30.4087 13.7175C29.9809 13.4995 29.4208 13.4995 28.3007 13.4995L16.7001 13.4995C15.58 13.4995 15.0199 13.4995 14.5921 13.7175C14.2157 13.9093 13.9098 14.2152 13.718 14.5916C13.5 15.0194 13.5 15.5795 13.5 16.6997Z" stroke="#505454" stroke-linecap="round" stroke-linejoin="round"/>
<path d="M22.5005 26.5001V29.5003M24.5005 31.5003H32.5009M20.5004 31.5003H12.5" stroke="#505454" stroke-linecap="round" stroke-linejoin="round"/>
<path d="M22.5001 33.5004C23.6047 33.5004 24.5002 32.605 24.5002 31.5003C24.5002 30.3957 23.6047 29.5002 22.5001 29.5002C21.3955 29.5002 20.5 30.3957 20.5 31.5003C20.5 32.605 21.3955 33.5004 22.5001 33.5004Z" stroke="#4C48FF" stroke-width="1.00005" stroke-linecap="round" stroke-linejoin="round"/>
</svg>
