<svg width="46" height="46" viewBox="0 0 46 46" fill="none" xmlns="http://www.w3.org/2000/svg">
<rect x="1" y="1" width="44" height="44" rx="22" fill="#0B0B0F"/>
<rect x="0.5" y="0.5" width="45" height="45" rx="22.5" stroke="white" stroke-opacity="0.16"/>
<path d="M12.5 18.3H12H12.5ZM12.827 15.138L13.2725 15.365L12.827 15.138ZM17.3 13.5V14V13.5ZM14.138 13.827L13.911 13.3815V13.3815L14.138 13.827ZM17.3 31.5V32V32V31.5ZM14.138 31.173L14.365 30.7275L14.138 31.173ZM12.5 26.7H13H12.5ZM12.827 29.862L12.3815 30.089L12.827 29.862ZM32.173 29.862L32.6185 30.089V30.089L32.173 29.862ZM27.7 31.5V31V31V31.5ZM30.862 31.173L31.089 31.6185L30.862 31.173ZM32.173 15.138L31.7275 15.365V15.365L32.173 15.138ZM27.7 13.5V13V13.5ZM30.862 13.827L30.635 14.2725L30.862 13.827ZM12.5 18C12.2239 18 12 18.2239 12 18.5C12 18.7761 12.2239 19 12.5 19V18.5V18ZM32.5 19C32.7761 19 33 18.7761 33 18.5C33 18.2239 32.7761 18 32.5 18V18.5V19ZM19.2908 19.6938L19.5681 19.2778H19.5681L19.2908 19.6938ZM18.7092 19.3062L18.9866 18.8901V18.8901L18.7092 19.3062ZM26.2908 19.3062L26.5681 19.7222L26.5681 19.7222L26.2908 19.3062ZM25.7092 19.6938L25.9866 20.1099V20.1099L25.7092 19.6938ZM24.7919 20.2494L24.5919 19.7912V19.7912L24.7919 20.2494ZM24.1181 20.4534L24.2059 20.9457V20.9457L24.1181 20.4534ZM20.2081 20.2494L20.4081 19.7912V19.7912L20.2081 20.2494ZM20.8819 20.4534L20.7941 20.9457V20.9457L20.8819 20.4534ZM27.8819 18.5466L27.7941 18.0543H27.7941L27.8819 18.5466ZM27.2081 18.7506L27.4081 19.2088V19.2088L27.2081 18.7506ZM17.1181 18.5466L17.2059 18.0543H17.2059L17.1181 18.5466ZM17.7919 18.7506L17.9919 18.2923V18.2923L17.7919 18.7506ZM32.5 18.3H32V26.7H32.5H33V18.3H32.5ZM27.7 31.5V31H17.3V31.5V32H27.7V31.5ZM12.5 26.7H13L13 18.3H12.5H12L12 26.7H12.5ZM17.3 13.5V14L27.7 14V13.5V13L17.3 13V13.5ZM12.5 18.3H13C13 17.4517 13.0004 16.8455 13.0392 16.3703C13.0776 15.901 13.1509 15.6037 13.2725 15.365L12.827 15.138L12.3815 14.911C12.1761 15.3141 12.0859 15.7577 12.0425 16.2889C11.9996 16.8142 12 17.4682 12 18.3H12.5ZM17.3 13.5V13C16.4682 13 15.8142 12.9996 15.2889 13.0425C14.7577 13.0859 14.3141 13.1761 13.911 13.3815L14.138 13.827L14.365 14.2725C14.6037 14.1509 14.901 14.0776 15.3703 14.0392C15.8455 14.0004 16.4517 14 17.3 14V13.5ZM12.827 15.138L13.2725 15.365C13.5122 14.8946 13.8946 14.5122 14.365 14.2725L14.138 13.827L13.911 13.3815C13.2525 13.717 12.717 14.2525 12.3815 14.911L12.827 15.138ZM17.3 31.5V31C16.4517 31 15.8455 30.9996 15.3703 30.9608C14.901 30.9224 14.6037 30.8491 14.365 30.7275L14.138 31.173L13.911 31.6185C14.3141 31.8239 14.7577 31.9141 15.2889 31.9575C15.8142 32.0004 16.4682 32 17.3 32V31.5ZM12.5 26.7H12C12 27.5318 11.9996 28.1858 12.0425 28.7111C12.0859 29.2423 12.1761 29.6859 12.3815 30.089L12.827 29.862L13.2725 29.635C13.1509 29.3963 13.0776 29.099 13.0392 28.6297C13.0004 28.1545 13 27.5483 13 26.7H12.5ZM14.138 31.173L14.365 30.7275C13.8946 30.4878 13.5122 30.1054 13.2725 29.635L12.827 29.862L12.3815 30.089C12.717 30.7475 13.2525 31.283 13.911 31.6185L14.138 31.173ZM32.5 26.7H32C32 27.5483 31.9996 28.1545 31.9608 28.6297C31.9224 29.099 31.8491 29.3963 31.7275 29.635L32.173 29.862L32.6185 30.089C32.8239 29.6859 32.9141 29.2423 32.9575 28.7111C33.0004 28.1858 33 27.5318 33 26.7H32.5ZM27.7 31.5V32C28.5318 32 29.1858 32.0004 29.7111 31.9575C30.2423 31.9141 30.6859 31.8239 31.089 31.6185L30.862 31.173L30.635 30.7275C30.3963 30.8491 30.099 30.9224 29.6297 30.9608C29.1545 30.9996 28.5483 31 27.7 31V31.5ZM32.173 29.862L31.7275 29.635C31.4878 30.1054 31.1054 30.4878 30.635 30.7275L30.862 31.173L31.089 31.6185C31.7475 31.283 32.283 30.7475 32.6185 30.089L32.173 29.862ZM32.5 18.3H33C33 17.4682 33.0004 16.8142 32.9575 16.2889C32.9141 15.7577 32.8239 15.3141 32.6185 14.911L32.173 15.138L31.7275 15.365C31.8491 15.6037 31.9224 15.901 31.9608 16.3703C31.9996 16.8455 32 17.4517 32 18.3H32.5ZM27.7 13.5V14C28.5483 14 29.1545 14.0004 29.6297 14.0392C30.099 14.0776 30.3963 14.1509 30.635 14.2725L30.862 13.827L31.089 13.3815C30.6859 13.1761 30.2423 13.0859 29.7111 13.0425C29.1858 12.9996 28.5318 13 27.7 13V13.5ZM32.173 15.138L32.6185 14.911C32.283 14.2525 31.7475 13.717 31.089 13.3815L30.862 13.827L30.635 14.2725C31.1054 14.5122 31.4878 14.8946 31.7275 15.365L32.173 15.138ZM16.0467 18.5V18H12.5V18.5V19H16.0467V18.5ZM32.5 18.5V18H28.9533V18.5V19H32.5V18.5ZM19.2908 19.6938L19.5681 19.2778L18.9866 18.8901L18.7092 19.3062L18.4319 19.7222L19.0134 20.1099L19.2908 19.6938ZM26.2908 19.3062L26.0134 18.8901L25.4319 19.2778L25.7092 19.6938L25.9866 20.1099L26.5681 19.7222L26.2908 19.3062ZM23.0467 20.5V20H21.9533V20.5V21H23.0467V20.5ZM25.7092 19.6938L25.4319 19.2778C24.9681 19.587 24.7852 19.7068 24.5919 19.7912L24.7919 20.2494L24.9919 20.7077C25.2849 20.5798 25.5514 20.4 25.9866 20.1099L25.7092 19.6938ZM23.0467 20.5V21C23.5697 21 23.8912 21.0018 24.2059 20.9457L24.1181 20.4534L24.0304 19.9612C23.8228 19.9982 23.6041 20 23.0467 20V20.5ZM24.7919 20.2494L24.5919 19.7912C24.412 19.8697 24.2236 19.9268 24.0304 19.9612L24.1181 20.4534L24.2059 20.9457C24.4763 20.8975 24.7402 20.8176 24.9919 20.7077L24.7919 20.2494ZM19.2908 19.6938L19.0134 20.1099C19.4486 20.4 19.7151 20.5798 20.0081 20.7077L20.2081 20.2494L20.4081 19.7912C20.2148 19.7068 20.0319 19.587 19.5681 19.2778L19.2908 19.6938ZM21.9533 20.5V20C21.3959 20 21.1772 19.9982 20.9696 19.9612L20.8819 20.4534L20.7941 20.9457C21.1088 21.0018 21.4303 21 21.9533 21V20.5ZM20.2081 20.2494L20.0081 20.7077C20.2598 20.8176 20.5237 20.8975 20.7941 20.9457L20.8819 20.4534L20.9696 19.9612C20.7764 19.9268 20.588 19.8697 20.4081 19.7912L20.2081 20.2494ZM28.9533 18.5V18C28.4303 18 28.1088 17.9982 27.7941 18.0543L27.8819 18.5466L27.9696 19.0388C28.1772 19.0018 28.3959 19 28.9533 19V18.5ZM26.2908 19.3062L26.5681 19.7222C27.0319 19.413 27.2148 19.2932 27.4081 19.2088L27.2081 18.7506L27.0081 18.2923C26.7151 18.4202 26.4486 18.6 26.0134 18.8901L26.2908 19.3062ZM27.8819 18.5466L27.7941 18.0543C27.5237 18.1025 27.2598 18.1824 27.0081 18.2923L27.2081 18.7506L27.4081 19.2088C27.588 19.1303 27.7764 19.0732 27.9696 19.0388L27.8819 18.5466ZM16.0467 18.5V19C16.6041 19 16.8228 19.0018 17.0304 19.0388L17.1181 18.5466L17.2059 18.0543C16.8912 17.9982 16.5697 18 16.0467 18V18.5ZM18.7092 19.3062L18.9866 18.8901C18.5514 18.6 18.2849 18.4202 17.9919 18.2923L17.7919 18.7506L17.5919 19.2088C17.7852 19.2932 17.9681 19.413 18.4319 19.7222L18.7092 19.3062ZM17.1181 18.5466L17.0304 19.0388C17.2236 19.0732 17.412 19.1303 17.5919 19.2088L17.7919 18.7506L17.9919 18.2923C17.7402 18.1824 17.4763 18.1025 17.2059 18.0543L17.1181 18.5466Z" fill="#DFE2E5"/>
<path d="M21.5 27C21.2239 27 21 27.2239 21 27.5C21 27.7761 21.2239 28 21.5 28V27.5V27ZM24.5 28C24.7761 28 25 27.7761 25 27.5C25 27.2239 24.7761 27 24.5 27V27.5V28ZM16.1464 27.1464C15.9512 27.3417 15.9512 27.6583 16.1464 27.8536C16.3417 28.0488 16.6583 28.0488 16.8536 27.8536L16.5 27.5L16.1464 27.1464ZM19 25L19.3536 25.3536C19.5488 25.1583 19.5488 24.8417 19.3536 24.6464L19 25ZM16.8536 22.1464C16.6583 21.9512 16.3417 21.9512 16.1464 22.1464C15.9512 22.3417 15.9512 22.6583 16.1464 22.8536L16.5 22.5L16.8536 22.1464ZM21.5 27.5V28H24.5V27.5V27H21.5V27.5ZM16.5 27.5L16.8536 27.8536L19.3536 25.3536L19 25L18.6464 24.6464L16.1464 27.1464L16.5 27.5ZM19 25L19.3536 24.6464L16.8536 22.1464L16.5 22.5L16.1464 22.8536L18.6464 25.3536L19 25Z" fill="#DFE2E5"/>
<path d="M32.5 30.75C33.6046 30.75 34.5 29.8546 34.5 28.75C34.5 27.6454 33.6046 26.75 32.5 26.75C31.3954 26.75 30.5 27.6454 30.5 28.75C30.5 29.8546 31.3954 30.75 32.5 30.75Z" fill="#0B0B0F"/>
<path d="M32.5 35C35.2614 35 37.5 32.7614 37.5 30C37.5 27.2386 35.2614 25 32.5 25C29.7386 25 27.5 27.2386 27.5 30C27.5 32.7614 29.7386 35 32.5 35Z" fill="#0B0B0F"/>
<path d="M29.1581 33.7192C29.4623 33.0026 30.1725 32.5 31 32.5H34C34.8275 32.5 35.5377 33.0026 35.8419 33.7192M34.5 28.75C34.5 29.8546 33.6046 30.75 32.5 30.75C31.3954 30.75 30.5 29.8546 30.5 28.75C30.5 27.6454 31.3954 26.75 32.5 26.75C33.6046 26.75 34.5 27.6454 34.5 28.75ZM37.5 30C37.5 32.7614 35.2614 35 32.5 35C29.7386 35 27.5 32.7614 27.5 30C27.5 27.2386 29.7386 25 32.5 25C35.2614 25 37.5 27.2386 37.5 30Z" stroke="#5B68FF" stroke-linecap="round" stroke-linejoin="round"/>
</svg>
