<svg width="46" height="46" viewBox="0 0 46 46" fill="none" xmlns="http://www.w3.org/2000/svg">
<path d="M1 23C1 10.8497 10.8497 1 23 1V1C35.1503 1 45 10.8497 45 23V23C45 35.1503 35.1503 45 23 45V45C10.8497 45 1 35.1503 1 23V23Z" fill="white"/>
<path d="M23 0.5C35.4264 0.5 45.5 10.5736 45.5 23C45.5 35.4264 35.4264 45.5 23 45.5C10.5736 45.5 0.5 35.4264 0.5 23C0.5 10.5736 10.5736 0.5 23 0.5Z" stroke="black" stroke-opacity="0.16"/>
<path d="M33.7 24.5L31.7005 22.5L29.7 24.5M32 23C32 27.9706 27.9706 32 23 32C18.0294 32 14 27.9706 14 23C14 18.0294 18.0294 14 23 14C26.3019 14 29.1885 15.7781 30.7545 18.4291" stroke="#505454" stroke-linecap="round" stroke-linejoin="round"/>
<path d="M23 18V23L26 25" fill="white"/>
<path d="M23 18V23L26 25" stroke="#4C48FF" stroke-linecap="round" stroke-linejoin="round"/>
</svg>
