<svg width="46" height="46" viewBox="0 0 46 46" fill="none" xmlns="http://www.w3.org/2000/svg">
<path d="M1 23C1 10.8497 10.8497 1 23 1V1C35.1503 1 45 10.8497 45 23V23C45 35.1503 35.1503 45 23 45V45C10.8497 45 1 35.1503 1 23V23Z" fill="white"/>
<path d="M23 0.5C35.4264 0.5 45.5 10.5736 45.5 23C45.5 35.4264 35.4264 45.5 23 45.5C10.5736 45.5 0.5 35.4264 0.5 23C0.5 10.5736 10.5736 0.5 23 0.5Z" stroke="black" stroke-opacity="0.16"/>
<line x1="24.001" y1="9.49963" x2="24.001" y2="13.4999" stroke="#4C48FF" stroke-linecap="round" stroke-linejoin="round"/>
<line x1="24.001" y1="32.501" x2="24.001" y2="36.5012" stroke="#4C48FF" stroke-linecap="round" stroke-linejoin="round"/>
<line x1="33.5469" y1="13.4548" x2="30.7183" y2="16.2834" stroke="#4C48FF" stroke-linecap="round" stroke-linejoin="round"/>
<line x1="37.501" y1="23.0006" x2="33.5007" y2="23.0006" stroke="#4C48FF" stroke-linecap="round" stroke-linejoin="round"/>
<line x1="14.5" y1="23.0006" x2="10.4998" y2="23.0006" stroke="#4C48FF" stroke-linecap="round" stroke-linejoin="round"/>
<line x1="33.5468" y1="32.5471" x2="30.7182" y2="29.7185" stroke="#4C48FF" stroke-linecap="round" stroke-linejoin="round"/>
<line x1="17.2831" y1="16.2826" x2="14.4545" y2="13.454" stroke="#4C48FF" stroke-linecap="round" stroke-linejoin="round"/>
<path d="M24.0005 23.0009H24.0105M24.0005 29.0012C27.3144 29.0012 30.0008 26.3147 30.0008 23.0009C30.0008 19.687 27.3144 17.0006 24.0005 17.0006C20.6867 17.0006 18.0003 19.687 18.0003 23.0009C18.0003 23.2746 18.0186 23.544 18.0541 23.808C18.1125 24.2421 18.1416 24.4592 18.122 24.5965C18.1015 24.7396 18.0755 24.8167 18.005 24.9429C17.9373 25.064 17.818 25.1833 17.5794 25.4219L12.4687 30.5326C12.2957 30.7056 12.2092 30.792 12.1474 30.893C12.0925 30.9824 12.0521 31.08 12.0276 31.182C12 31.2971 12 31.4194 12 31.664V33.4014C12 33.9614 12 34.2415 12.109 34.4554C12.2049 34.6436 12.3579 34.7966 12.546 34.8924C12.76 35.0014 13.04 35.0014 13.6001 35.0014H15.3374C15.582 35.0014 15.7043 35.0014 15.8194 34.9738C15.9214 34.9493 16.019 34.9089 16.1085 34.8541C16.2094 34.7922 16.2959 34.7057 16.4688 34.5328L21.5796 29.422C21.8182 29.1835 21.9375 29.0642 22.0586 28.9965C22.1847 28.926 22.2618 28.8999 22.4049 28.8794C22.5422 28.8598 22.7593 28.889 23.1935 28.9473C23.4574 28.9828 23.7269 29.0012 24.0005 29.0012Z" stroke="#505454" stroke-width="1.00005" stroke-linecap="round" stroke-linejoin="round"/>
</svg>
