<svg width="46" height="46" viewBox="0 0 46 46" fill="none" xmlns="http://www.w3.org/2000/svg">
<path d="M1 23C1 10.8497 10.8497 1 23 1V1C35.1503 1 45 10.8497 45 23V23C45 35.1503 35.1503 45 23 45V45C10.8497 45 1 35.1503 1 23V23Z" fill="white"/>
<path d="M23 0.5C35.4264 0.5 45.5 10.5736 45.5 23C45.5 35.4264 35.4264 45.5 23 45.5C10.5736 45.5 0.5 35.4264 0.5 23C0.5 10.5736 10.5736 0.5 23 0.5Z" stroke="black" stroke-opacity="0.16"/>
<path d="M29.0011 33.0011L27.001 31.001L29.0011 29.0009M27.001 31.001H29.0011C31.2103 31.001 33.0012 29.2101 33.0012 27.0009" stroke="#505454" stroke-linecap="round" stroke-linejoin="round"/>
<path d="M17.0002 13.0001L19.0003 15.0002L17.0002 17.0003M19.0003 15.0002H17.0002C14.7909 15.0002 13 16.7912 13 19.0004" stroke="#505454" stroke-linecap="round" stroke-linejoin="round"/>
<circle cx="27.0003" cy="19.0005" r="6.00027" fill="white" stroke="#4C48FF" stroke-linecap="round" stroke-linejoin="round"/>
<path d="M23.7396 18.6613L26.6609 15.7399C26.7797 15.6211 26.8391 15.5617 26.9076 15.5395C26.9679 15.5199 27.0328 15.5199 27.093 15.5395C27.1615 15.5617 27.2209 15.6211 27.3397 15.7399L30.2611 18.6613C30.3799 18.7801 30.4393 18.8395 30.4615 18.908C30.4811 18.9682 30.4811 19.0331 30.4615 19.0934C30.4393 19.1619 30.3799 19.2213 30.2611 19.3401L27.3397 22.2614C27.2209 22.3802 27.1615 22.4397 27.093 22.4619C27.0328 22.4815 26.9679 22.4815 26.9076 22.4619C26.8391 22.4397 26.7797 22.3802 26.6609 22.2614L23.7396 19.3401C23.6208 19.2213 23.5614 19.1619 23.5391 19.0934C23.5195 19.0331 23.5195 18.9682 23.5391 18.908C23.5614 18.8395 23.6208 18.7801 23.7396 18.6613Z" fill="white" stroke="#4C48FF" stroke-linecap="round" stroke-linejoin="round"/>
<path d="M19.0003 33.001C22.3141 33.001 25.0005 30.3146 25.0005 27.0008C25.0005 23.6869 22.3141 21.0005 19.0003 21.0005C15.6864 21.0005 13 23.6869 13 27.0008C13 30.3146 15.6864 33.001 19.0003 33.001Z" fill="white"/>
<path d="M16.9002 28.6008C16.9002 29.3741 17.527 30.0009 18.3002 30.0009H19.6003C20.4288 30.0009 21.1004 29.3293 21.1004 28.5008C21.1004 27.6724 20.4288 27.0008 19.6003 27.0008H18.4002C17.5718 27.0008 16.9002 26.3292 16.9002 25.5007C16.9002 24.6722 17.5718 24.0006 18.4002 24.0006H19.7003C20.4735 24.0006 21.1004 24.6275 21.1004 25.4007M19.0003 23.1006V24.0006M19.0003 30.0009V30.9009M25.0005 27.0008C25.0005 30.3146 22.3141 33.001 19.0003 33.001C15.6864 33.001 13 30.3146 13 27.0008C13 23.6869 15.6864 21.0005 19.0003 21.0005C22.3141 21.0005 25.0005 23.6869 25.0005 27.0008Z" stroke="#505454" stroke-linecap="round" stroke-linejoin="round"/>
</svg>
