<svg width="46" height="46" viewBox="0 0 46 46" fill="none" xmlns="http://www.w3.org/2000/svg">
<path d="M1 23C1 10.8497 10.8497 1 23 1V1C35.1503 1 45 10.8497 45 23V23C45 35.1503 35.1503 45 23 45V45C10.8497 45 1 35.1503 1 23V23Z" fill="white"/>
<path d="M23 0.5C35.4264 0.5 45.5 10.5736 45.5 23C45.5 35.4264 35.4264 45.5 23 45.5C10.5736 45.5 0.5 35.4264 0.5 23C0.5 10.5736 10.5736 0.5 23 0.5Z" stroke="black" stroke-opacity="0.16"/>
<path d="M31.5008 18.2781L23.0004 23.0005M23.0004 23.0005L14.5 18.2781M23.0004 23.0005L23.0004 32.501M32.0008 27.0593V18.9418C32.0008 18.5991 32.0008 18.4278 31.9503 18.275C31.9057 18.1398 31.8327 18.0157 31.7362 17.911C31.6271 17.7927 31.4774 17.7095 31.1778 17.5431L23.7775 13.4318C23.4939 13.2742 23.3521 13.1954 23.2019 13.1645C23.069 13.1372 22.9319 13.1372 22.799 13.1645C22.6488 13.1954 22.507 13.2742 22.2233 13.4318L14.823 17.5431C14.5235 17.7095 14.3737 17.7927 14.2646 17.911C14.1682 18.0157 14.0952 18.1398 14.0505 18.275C14 18.4278 14 18.5991 14 18.9418V27.0593C14 27.4019 14 27.5733 14.0505 27.7261C14.0952 27.8612 14.1682 27.9853 14.2646 28.09C14.3737 28.2084 14.5235 28.2916 14.823 28.458L22.2233 32.5693C22.507 32.7269 22.6488 32.8056 22.799 32.8365C22.9319 32.8639 23.069 32.8639 23.2019 32.8365C23.352 32.8056 23.4939 32.7269 23.7775 32.5693L31.1778 28.458C31.4774 28.2916 31.6271 28.2084 31.7362 28.09C31.8327 27.9853 31.9057 27.8612 31.9503 27.7261C32.0008 27.5733 32.0008 27.4019 32.0008 27.0593Z" stroke="#505454" stroke-width="1.00005" stroke-linecap="round" stroke-linejoin="round"/>
<path d="M27.498 20.5771L27.4981 30.0776" stroke="#505454" stroke-width="1.00005" stroke-linecap="round" stroke-linejoin="round"/>
<path d="M18.4971 20.5771L18.4971 30.0776" stroke="#505454" stroke-width="1.00005" stroke-linecap="round" stroke-linejoin="round"/>
<path d="M27.2504 15.6423L18.75 20.3648" stroke="#505454" stroke-width="1.00005" stroke-linecap="round" stroke-linejoin="round"/>
<path d="M27.2504 20.3648L18.75 15.6423" stroke="#505454" stroke-width="1.00005" stroke-linecap="round" stroke-linejoin="round"/>
<path d="M22.7475 27.6885L14.2471 22.9661" stroke="#505454" stroke-width="1.00005" stroke-linecap="round" stroke-linejoin="round"/>
<path d="M23.2477 27.6885L31.748 22.9661" stroke="#505454" stroke-width="1.00005" stroke-linecap="round" stroke-linejoin="round"/>
<path d="M23.002 7.4447C23.002 7.4447 33.962 13.5325 37.001 15.2202C37.001 20.4113 37.001 25.6024 37.001 30.7935C35.2196 31.7811 23.0014 38.5526 23.0014 38.5526L9.00098 30.7755C9.0012 25.5901 9.00094 20.4047 9.00104 15.2194L23.002 7.4447Z" stroke="#4C48FF" stroke-linecap="round" stroke-linejoin="round" stroke-dasharray="6 8"/>
</svg>
