<svg width="46" height="46" viewBox="0 0 46 46" fill="none" xmlns="http://www.w3.org/2000/svg">
<path d="M1 23C1 10.8497 10.8497 1 23 1V1C35.1503 1 45 10.8497 45 23V23C45 35.1503 35.1503 45 23 45V45C10.8497 45 1 35.1503 1 23V23Z" fill="#0B0B0F"/>
<path d="M23 0.5C35.4264 0.5 45.5 10.5736 45.5 23C45.5 35.4264 35.4264 45.5 23 45.5C10.5736 45.5 0.5 35.4264 0.5 23C0.5 10.5736 10.5736 0.5 23 0.5Z" stroke="white" stroke-opacity="0.16"/>
<path d="M12.5 18.5H16.0467C16.5869 18.5 16.857 18.5 17.1181 18.5466C17.35 18.5879 17.5761 18.6563 17.7919 18.7506C18.035 18.8567 18.2598 19.0065 18.7092 19.3062L19.2908 19.6938C19.7402 19.9935 19.965 20.1433 20.2081 20.2494C20.4239 20.3436 20.65 20.4121 20.8819 20.4534C21.143 20.5 21.4131 20.5 21.9533 20.5H23.0467C23.5869 20.5 23.857 20.5 24.1181 20.4534C24.35 20.4121 24.5761 20.3436 24.7919 20.2494C25.035 20.1433 25.2598 19.9935 25.7092 19.6938L26.2908 19.3062C26.7402 19.0065 26.965 18.8567 27.2081 18.7506C27.4239 18.6563 27.65 18.5879 27.8819 18.5466C28.143 18.5 28.4131 18.5 28.9533 18.5H32.5M12.5 18.3L12.5 26.7C12.5 28.3802 12.5 29.2202 12.827 29.862C13.1146 30.4265 13.5735 30.8854 14.138 31.173C14.7798 31.5 15.6198 31.5 17.3 31.5H27.7C29.3802 31.5 30.2202 31.5 30.862 31.173C31.4265 30.8854 31.8854 30.4265 32.173 29.862C32.5 29.2202 32.5 28.3802 32.5 26.7V18.3C32.5 16.6198 32.5 15.7798 32.173 15.138C31.8854 14.5735 31.4265 14.1146 30.862 13.827C30.2202 13.5 29.3802 13.5 27.7 13.5L17.3 13.5C15.6198 13.5 14.7798 13.5 14.138 13.827C13.5735 14.1146 13.1146 14.5735 12.827 15.138C12.5 15.7798 12.5 16.6198 12.5 18.3Z" stroke="#DFE2E5" stroke-linecap="round" stroke-linejoin="round"/>
<path d="M21.5 27.5H24.5M16.5 27.5L19 25L16.5 22.5" stroke="#DFE2E5" stroke-linecap="round" stroke-linejoin="round"/>
<path d="M28 27.1C28 26.5399 28 26.2599 28.109 26.046C28.2049 25.8578 28.3578 25.7049 28.546 25.609C28.7599 25.5 29.0399 25.5 29.6 25.5H35.4C35.9601 25.5 36.2401 25.5 36.454 25.609C36.6422 25.7049 36.7951 25.8578 36.891 26.046C37 26.2599 37 26.5399 37 27.1V32.9C37 33.4601 37 33.7401 36.891 33.954C36.7951 34.1422 36.6422 34.2951 36.454 34.391C36.2401 34.5 35.9601 34.5 35.4 34.5H29.6C29.0399 34.5 28.7599 34.5 28.546 34.391C28.3578 34.2951 28.2049 34.1422 28.109 33.954C28 33.7401 28 33.4601 28 32.9V27.1Z" fill="#0B0B0F"/>
<path d="M29.75 27.5H31.625M29.75 29.5H31.625M29.75 31.5H31.625M33.375 27.5H35.25M33.375 29.5H35.25M33.375 31.5H35.25M37 27.1V32.9C37 33.4601 37 33.7401 36.891 33.954C36.7951 34.1422 36.6422 34.2951 36.454 34.391C36.2401 34.5 35.9601 34.5 35.4 34.5H29.6C29.0399 34.5 28.7599 34.5 28.546 34.391C28.3578 34.2951 28.2049 34.1422 28.109 33.954C28 33.7401 28 33.4601 28 32.9V27.1C28 26.5399 28 26.2599 28.109 26.046C28.2049 25.8578 28.3578 25.7049 28.546 25.609C28.7599 25.5 29.0399 25.5 29.6 25.5H35.4C35.9601 25.5 36.2401 25.5 36.454 25.609C36.6422 25.7049 36.7951 25.8578 36.891 26.046C37 26.2599 37 26.5399 37 27.1Z" stroke="#5B68FF" stroke-linecap="round" stroke-linejoin="round"/>
</svg>
