<svg width="1080" height="580" viewBox="0 0 1080 580" fill="none" xmlns="http://www.w3.org/2000/svg">
<path d="M654.826 40.7216L606.983 88.564L654.826 136.406L702.668 88.564L654.826 40.7216Z" fill="#030206"/>
<path d="M654.84 41.927L701.481 88.568L654.84 135.209L608.199 88.568L654.84 41.927ZM654.84 39.5422L605.814 88.568L654.84 137.594L703.866 88.568L654.84 39.5422Z" fill="#F3FF97"/>
<path d="M650.06 36.1598L602.218 84.0022L650.06 131.845L697.903 84.0022L650.06 36.1598Z" fill="#030206"/>
<path d="M650.071 37.3791L696.712 84.0201L650.071 130.661L603.43 84.0201L650.071 37.3791ZM650.071 34.9944L601.045 84.0201L650.071 133.046L699.097 84.0201L650.071 34.9944Z" fill="#F3FF97"/>
<path d="M645.09 31.9179L597.248 79.7603L645.09 127.603L692.932 79.7603L645.09 31.9179Z" fill="#030206"/>
<path d="M645.079 33.0534L691.72 79.6944L645.079 126.335L598.438 79.7499L645.079 33.0534ZM645.079 30.7241L596.054 79.7499L645.079 128.776L694.105 79.7499L645.079 30.7241Z" fill="#F3FF97"/>
<path d="M639.994 27.924L592.151 75.7664L639.994 123.609L687.836 75.7664L639.994 27.924Z" fill="#030206"/>
<path d="M639.977 29.0605L686.618 75.7015L639.977 122.342L593.336 75.7015L639.977 29.0605ZM639.977 26.7312L590.951 75.757L639.977 124.783L689.003 75.757L639.977 26.7312Z" fill="#F3FF97"/>
<path d="M634.777 24.1843L586.935 72.0266L634.777 119.869L682.619 72.0266L634.777 24.1843Z" fill="#030206"/>
<path d="M634.765 25.3447L681.406 71.9857L634.765 118.627L588.124 71.9857L634.765 25.3447ZM634.765 23.0154L585.739 72.0411L634.765 121.067L683.791 72.0411L634.765 23.0154Z" fill="#F3FF97"/>
<path d="M629.363 20.7096L581.52 68.552L629.363 116.394L677.205 68.552L629.363 20.7096Z" fill="#030206"/>
<path d="M629.385 21.9064L676.026 68.5474L629.385 115.188L582.744 68.5474L629.385 21.9064ZM629.385 19.5771L580.359 68.6029L629.385 117.629L678.411 68.6029L629.385 19.5771Z" fill="#F3FF97"/>
<path d="M623.872 17.5431L576.03 65.3855L623.872 113.228L671.714 65.3855L623.872 17.5431Z" fill="#030206"/>
<path d="M623.894 18.745L670.535 65.3861L623.894 112.027L577.253 65.3861L623.894 18.745ZM623.894 16.4158L574.868 65.4415L623.894 114.467L672.919 65.4415L623.894 16.4158Z" fill="#F3FF97"/>
<path d="M618.269 14.6532L570.427 62.4956L618.269 110.338L666.111 62.4956L618.269 14.6532Z" fill="#030206"/>
<path d="M618.293 15.8613L664.934 62.5023L618.293 109.143L571.652 62.5023L618.293 15.8613ZM618.293 13.4766L569.268 62.5023L618.293 111.528L667.319 62.5023L618.293 13.4766Z" fill="#F3FF97"/>
<path d="M612.557 12.0483L564.715 59.8906L612.557 107.733L660.399 59.8906L612.557 12.0483Z" fill="#030206"/>
<path d="M612.58 13.2548L659.221 59.8958L612.58 106.537L565.939 59.8958L612.58 13.2548ZM612.58 10.9255L563.554 59.9513L612.58 108.977L661.606 59.9513L612.58 10.9255Z" fill="#F3FF97"/>
<path d="M606.738 9.73528L558.896 57.5776L606.738 105.42L654.58 57.5776L606.738 9.73528Z" fill="#030206"/>
<path d="M606.757 10.9255L653.398 57.5665L606.757 104.263L560.116 57.6219L606.757 10.9255ZM606.757 8.59619L557.731 57.6219L606.757 106.648L655.783 57.6219L606.757 8.59619Z" fill="#F3FF97"/>
<path d="M600.895 7.72208L553.053 55.5645L600.895 103.407L648.738 55.5644L600.895 7.72208Z" fill="#030206"/>
<path d="M600.879 8.87347L647.52 55.5145L600.879 102.155L554.238 55.5145L600.879 8.87347ZM600.879 6.54419L551.854 55.5699L600.879 104.596L649.905 55.5699L600.879 6.54419Z" fill="#F3FF97"/>
<path d="M594.951 5.93669L547.109 53.7791L594.951 101.621L642.793 53.7791L594.951 5.93669Z" fill="#030206"/>
<path d="M594.945 7.09905L641.586 53.7401L594.945 100.381L548.304 53.7401L594.945 7.09905ZM594.945 4.76978L545.919 53.7955L594.945 102.821L643.97 53.7955L594.945 4.76978Z" fill="#F3FF97"/>
<path d="M588.91 4.46501L541.068 52.3074L588.91 100.15L636.753 52.3074L588.91 4.46501Z" fill="#030206"/>
<path d="M588.9 5.60125L635.541 52.2423L588.9 98.9387L542.259 52.2977L588.9 5.60125ZM588.9 3.27197L539.874 52.2977L588.9 101.323L637.926 52.2977L588.9 3.27197Z" fill="#F3FF97"/>
<path d="M582.852 3.23551L535.01 51.0779L582.852 98.9202L630.694 51.0779L582.852 3.23551Z" fill="#030206"/>
<path d="M582.854 4.4365L629.495 51.0775L582.854 97.7185L536.213 51.0775L582.854 4.4365ZM582.854 2.05176L533.828 51.0775L582.854 100.103L631.88 51.0775L582.854 2.05176Z" fill="#F3FF97"/>
<path d="M576.743 2.29557L528.9 50.1379L576.743 97.9803L624.585 50.1379L576.743 2.29557Z" fill="#030206"/>
<path d="M576.754 3.4941L623.395 50.1351L576.754 96.7761L530.113 50.1351L576.754 3.4941ZM576.754 1.10938L527.728 50.1351L576.754 99.1609L625.78 50.1351L576.754 1.10938Z" fill="#F3FF97"/>
<path d="M570.585 1.65251L522.742 49.4949L570.585 97.3372L618.427 49.4949L570.585 1.65251Z" fill="#030206"/>
<path d="M570.598 2.82781L617.24 49.4688L570.598 96.1653L523.958 49.5243L570.598 2.82781ZM570.598 0.498535L521.573 49.5243L570.598 98.55L619.624 49.5243L570.598 0.498535Z" fill="#F3FF97"/>
<path d="M564.497 1.27239L516.655 49.1147L564.497 96.9571L612.339 49.1148L564.497 1.27239Z" fill="#030206"/>
<path d="M564.498 2.44012L611.139 49.0811L564.498 95.7221L517.857 49.0811L564.498 2.44012ZM564.498 0.11084L515.473 49.1366L564.498 98.1623L613.524 49.1366L564.498 0.11084Z" fill="#F3FF97"/>
<path d="M558.289 1.20453L510.447 49.0469L558.289 96.8892L606.131 49.0469L558.289 1.20453Z" fill="#030206"/>
<path d="M558.286 2.38473L604.927 49.0257L558.286 95.6668L511.645 49.0257L558.286 2.38473ZM558.286 0L509.316 49.0257L558.342 98.0515L607.312 49.0257L558.286 0Z" fill="#F3FF97"/>
<path d="M552.119 1.37688L504.277 49.2192L552.119 97.0616L599.962 49.2192L552.119 1.37688Z" fill="#030206"/>
<path d="M552.13 2.55071L598.771 49.1917L552.13 95.8327L505.489 49.1917L552.13 2.55071ZM552.13 0.221436L503.105 49.2472L552.13 98.2729L601.156 49.2472L552.13 0.221436Z" fill="#F3FF97"/>
<path d="M546.029 1.83513L498.187 49.6775L546.029 97.5199L593.872 49.6775L546.029 1.83513Z" fill="#030206"/>
<path d="M546.029 2.9948L592.67 49.6358L546.029 96.2768L499.388 49.6358L546.029 2.9948ZM546.029 0.665527L497.004 49.6913L546.029 98.717L595.055 49.6913L546.029 0.665527Z" fill="#F3FF97"/>
<path d="M539.867 2.58562L492.024 50.428L539.867 98.2703L587.709 50.428L539.867 2.58562Z" fill="#030206"/>
<path d="M539.874 3.77096L586.515 50.412L539.874 97.053L493.233 50.412L539.874 3.77096ZM539.874 1.38623L490.848 50.412L539.874 99.4377L588.9 50.412L539.874 1.38623Z" fill="#F3FF97"/>
<path d="M533.791 3.63811L485.948 51.4805L533.791 99.3228L581.633 51.4805L533.791 3.63811Z" fill="#030206"/>
<path d="M533.774 4.76971L580.415 51.4107L533.774 98.0517L487.133 51.4107L533.774 4.76971ZM533.774 2.44043L484.748 51.4662L533.774 100.492L582.8 51.4662L533.774 2.44043Z" fill="#F3FF97"/>
<path d="M527.726 4.92107L479.884 52.7634L527.726 100.606L575.569 52.7634L527.726 4.92107Z" fill="#030206"/>
<path d="M527.728 6.10007L574.369 52.7411L527.728 99.3821L481.087 52.7411L527.728 6.10007ZM527.728 3.71533L478.703 52.7411L527.728 101.767L576.754 52.7411L527.728 3.71533Z" fill="#F3FF97"/>
<path d="M521.754 6.51799L473.912 54.3604L521.754 102.203L569.597 54.3604L521.754 6.51799Z" fill="#030206"/>
<path d="M521.738 7.65325L568.379 54.2943L521.738 100.935L475.097 54.2943L521.738 7.65325ZM521.738 5.32397L472.713 54.3497L521.738 103.375L570.764 54.3497L521.738 5.32397Z" fill="#F3FF97"/>
<path d="M515.799 8.36077L467.957 56.2031L515.799 104.045L563.641 56.2031L515.799 8.36077Z" fill="#030206"/>
<path d="M515.805 9.53879L562.446 56.1798L515.805 102.876L469.164 56.2353L515.805 9.53879ZM515.805 7.15405L466.779 56.1798L515.805 105.206L564.831 56.1798L515.805 7.15405Z" fill="#F3FF97"/>
<path d="M509.982 10.4941L462.14 58.3364L509.982 106.179L557.825 58.3364L509.982 10.4941Z" fill="#030206"/>
<path d="M509.981 11.6464L556.622 58.2874L509.981 104.928L463.34 58.2874L509.981 11.6464ZM509.981 9.31714L460.956 58.3429L509.981 107.369L559.007 58.3429L509.981 9.31714Z" fill="#F3FF97"/>
<path d="M504.189 12.8854L456.346 60.7278L504.189 108.57L552.031 60.7278L504.189 12.8854Z" fill="#030206"/>
<path d="M504.214 14.0871L550.855 60.7281L504.214 107.369L457.573 60.7281L504.214 14.0871ZM504.214 11.7578L455.188 60.7836L504.214 109.809L553.24 60.7836L504.214 11.7578Z" fill="#F3FF97"/>
<path d="M498.5 15.6225L450.658 63.4648L498.5 111.307L546.342 63.4648L498.5 15.6225Z" fill="#030206"/>
<path d="M498.502 16.8037L545.198 63.4447L498.557 110.086L451.861 63.4447L498.502 16.8037ZM498.502 14.4189L449.531 63.4447L498.557 112.47L547.583 63.4447L498.502 14.4189Z" fill="#F3FF97"/>
<path d="M492.96 18.5929L445.117 66.4353L492.96 114.278L540.802 66.4353L492.96 18.5929Z" fill="#030206"/>
<path d="M492.956 19.7433L539.597 66.3843L492.956 113.025L446.315 66.3843L492.956 19.7433ZM492.956 17.4141L443.93 66.4398L492.956 115.466L541.982 66.4398L492.956 17.4141Z" fill="#F3FF97"/>
<path d="M487.528 21.8444L439.685 69.6868L487.528 117.529L535.37 69.6868L487.528 21.8444Z" fill="#030206"/>
<path d="M487.521 23.0158L534.162 69.6568L487.521 116.353L440.88 69.7123L487.521 23.0158ZM487.521 20.6865L438.495 69.7123L487.521 118.738L536.547 69.7123L487.521 20.6865Z" fill="#F3FF97"/>
<path d="M482.133 25.384L434.291 73.2263L482.133 121.069L529.975 73.2263L482.133 25.384Z" fill="#030206"/>
<path d="M482.141 26.5649L528.782 73.2059L482.141 119.847L435.5 73.2059L482.141 26.5649ZM482.141 24.1802L433.171 73.2059L482.197 122.232L531.222 73.2059L482.141 24.1802Z" fill="#F3FF97"/>
<path d="M476.972 29.1801L429.129 77.0225L476.972 124.865L524.814 77.0225L476.972 29.1801Z" fill="#030206"/>
<path d="M476.984 30.3913L523.625 77.0323L476.984 123.729L430.343 77.0878L476.984 30.3913ZM476.984 28.0066L427.958 77.0323L476.984 126.058L526.01 77.0323L476.984 28.0066Z" fill="#F3FF97"/>
<path d="M471.93 33.279L424.088 81.1213L471.93 128.964L519.772 81.1213L471.93 33.279Z" fill="#030206"/>
<path d="M471.937 34.4953L518.578 81.1363L471.937 127.777L425.296 81.1363L471.937 34.4953ZM471.937 32.1106L422.911 81.1363L471.937 130.162L520.962 81.1363L471.937 32.1106Z" fill="#F3FF97"/>
<path d="M467.012 37.6872L419.169 85.5295L467.012 133.372L514.854 85.5295L467.012 37.6872Z" fill="#030206"/>
<path d="M467.001 38.8215L513.642 85.4625L467.001 132.159L420.36 85.5179L467.001 38.8215ZM467.001 36.4922L417.975 85.5179L467.001 134.544L516.027 85.5179L467.001 36.4922Z" fill="#F3FF97"/>
<path d="M462.304 42.3366L414.462 90.179L462.304 138.021L510.146 90.179L462.304 42.3366Z" fill="#030206"/>
<path d="M462.287 43.4799L508.928 90.1209L462.287 136.762L415.646 90.1209L462.287 43.4799ZM462.287 41.1506L413.261 90.1764L462.287 139.202L511.312 90.1764L462.287 41.1506Z" fill="#F3FF97"/>
<path d="M457.848 47.1447L410.006 94.9871L457.848 142.829L505.691 94.9871L457.848 47.1447Z" fill="#030206"/>
<path d="M457.85 48.3049L504.491 94.9459L457.85 141.642L411.209 95.0013L457.85 48.3049ZM457.85 45.9756L408.825 95.0013L457.85 144.027L506.876 95.0013L457.85 45.9756Z" fill="#F3FF97"/>
<path d="M453.635 52.1576L405.792 100L453.635 147.842L501.477 100L453.635 52.1576Z" fill="#030206"/>
<path d="M453.635 53.3515L500.276 99.9925L453.635 146.634L406.994 99.9925L453.635 53.3515ZM453.635 50.9668L404.609 99.9925L453.635 149.018L502.66 99.9925L453.635 50.9668Z" fill="#F3FF97"/>
<path d="M449.752 57.2939L401.909 105.136L449.752 152.979L497.594 105.136L449.752 57.2939Z" fill="#030206"/>
<path d="M449.753 58.4535L496.394 105.095L449.753 151.736L403.112 105.095L449.753 58.4535ZM449.753 56.1243L400.727 105.15L449.753 154.176L498.779 105.15L449.753 56.1243Z" fill="#F3FF97"/>
<path d="M446.086 62.591L398.244 110.433L446.086 158.276L493.928 110.433L446.086 62.591Z" fill="#030206"/>
<path d="M446.093 63.7776L492.734 110.419L446.093 157.06L399.452 110.419L446.093 63.7776ZM446.093 61.3928L397.068 110.419L446.093 159.444L495.119 110.419L446.093 61.3928Z" fill="#F3FF97"/>
<path d="M442.765 68.0043L394.922 115.847L442.765 163.689L490.607 115.847L442.765 68.0043Z" fill="#030206"/>
<path d="M442.765 69.1569L489.406 115.798L442.765 162.439L396.124 115.798L442.765 69.1569ZM442.765 66.8276L393.739 115.853L442.765 164.879L491.791 115.853L442.765 66.8276Z" fill="#F3FF97"/>
<path d="M439.677 73.5719L391.834 121.414L439.677 169.257L487.519 121.414L439.677 73.5719Z" fill="#030206"/>
<path d="M439.66 74.7033L486.301 121.344L439.66 167.985L393.019 121.344L439.66 74.7033ZM439.66 72.374L390.634 121.4L439.66 170.426L488.686 121.4L439.66 72.374Z" fill="#F3FF97"/>
<path d="M436.868 79.172L389.026 127.014L436.868 174.857L484.711 127.014L436.868 79.172Z" fill="#030206"/>
<path d="M436.887 80.36L483.528 127.001L436.887 173.642L390.246 127.001L436.887 80.36ZM436.887 78.0308L387.861 127.057L436.887 176.082L485.912 127.057L436.887 78.0308Z" fill="#F3FF97"/>
<path d="M434.386 84.9203L386.544 132.763L434.386 180.605L482.228 132.763L434.386 84.9203Z" fill="#030206"/>
<path d="M434.391 86.1276L481.032 132.769L434.391 179.41L387.695 132.769L434.391 86.1276ZM434.391 83.7429L385.365 132.769L434.391 181.794L483.417 132.769L434.391 83.7429Z" fill="#F3FF97"/>
<path d="M432.16 90.7343L384.318 138.577L432.16 186.419L480.003 138.577L432.16 90.7343Z" fill="#030206"/>
<path d="M432.172 91.9511L478.813 138.592L432.172 185.233L385.476 138.592L432.172 91.9511ZM432.172 89.5664L383.147 138.592L432.172 187.618L481.198 138.592L432.172 89.5664Z" fill="#F3FF97"/>
<path d="M430.195 96.6899L382.353 144.532L430.195 192.375L478.037 144.532L430.195 96.6899Z" fill="#030206"/>
<path d="M430.176 97.8298L476.817 144.471L430.176 191.112L383.535 144.471L430.176 97.8298ZM430.176 95.5005L381.15 144.526L430.176 193.552L479.202 144.526L430.176 95.5005Z" fill="#F3FF97"/>
<path d="M428.5 102.628L380.657 150.47L428.5 198.312L476.342 150.47L428.5 102.628Z" fill="#030206"/>
<path d="M428.512 103.819L475.153 150.46L428.512 197.101L381.871 150.46L428.512 103.819ZM428.512 101.435L379.486 150.46L428.512 199.486L477.538 150.46L428.512 101.435Z" fill="#F3FF97"/>
<path d="M427.121 108.662L379.279 156.504L427.121 204.347L474.963 156.504L427.121 108.662Z" fill="#030206"/>
<path d="M427.126 109.864L473.767 156.505L427.126 203.202L380.485 156.505L427.126 109.864ZM427.126 107.48L378.1 156.505L427.126 205.531L476.152 156.505L427.126 107.48Z" fill="#F3FF97"/>
<path d="M426.026 114.75L378.184 162.592L426.026 210.434L473.869 162.592L426.026 114.75Z" fill="#030206"/>
<path d="M426.016 115.909L472.657 162.55L426.016 209.191L379.375 162.55L426.016 115.909ZM426.016 113.58L376.991 162.606L426.016 211.632L475.042 162.606L426.016 113.58Z" fill="#F3FF97"/>
<path d="M425.185 120.849L377.343 168.691L425.185 216.534L473.027 168.691L425.185 120.849Z" fill="#030206"/>
<path d="M425.185 122.01L471.826 168.651L425.185 215.292L378.544 168.651L425.185 122.01ZM425.185 119.681L376.159 168.706L425.185 217.732L474.211 168.706L425.185 119.681Z" fill="#F3FF97"/>
<path d="M424.642 126.997L376.799 174.84L424.642 222.682L472.484 174.84L424.642 126.997Z" fill="#030206"/>
<path d="M424.63 128.165L471.271 174.806L424.63 221.503L377.989 174.862L424.63 128.165ZM424.63 125.836L375.605 174.862L424.63 223.888L473.656 174.862L424.63 125.836Z" fill="#F3FF97"/>
<path d="M424.326 133.112L376.483 180.954L424.326 228.797L472.168 180.954L424.326 133.112Z" fill="#030206"/>
<path d="M424.353 134.322L470.994 180.963L424.353 227.604L377.712 180.963L424.353 134.322ZM424.353 131.993L375.327 181.018L424.353 230.044L473.379 181.018L424.353 131.993Z" fill="#F3FF97"/>
<path d="M424.362 139.309L376.52 187.152L424.362 234.994L472.205 187.152L424.362 139.309Z" fill="#030206"/>
<path d="M424.353 140.478L470.994 187.119L424.353 233.76L377.712 187.119L424.353 140.478ZM424.353 138.149L375.327 187.175L424.353 236.2L473.379 187.175L424.353 138.149Z" fill="#F3FF97"/>
<path d="M424.604 145.425L376.762 193.268L424.604 241.11L472.446 193.268L424.604 145.425Z" fill="#030206"/>
<path d="M424.63 146.633L471.271 193.274L424.63 239.916L377.989 193.274L424.63 146.633ZM424.63 144.304L375.605 193.33L424.63 242.356L473.656 193.33L424.63 144.304Z" fill="#F3FF97"/>
<path d="M425.172 151.579L377.329 199.422L425.172 247.264L473.014 199.422L425.172 151.579Z" fill="#030206"/>
<path d="M425.185 152.79L471.826 199.431L425.185 246.072L378.544 199.431L425.185 152.79ZM425.185 150.405L376.159 199.431L425.185 248.457L474.211 199.431L425.185 150.405Z" fill="#F3FF97"/>
<path d="M425.996 157.687L378.154 205.53L425.996 253.372L473.839 205.53L425.996 157.687Z" fill="#030206"/>
<path d="M426.016 158.89L472.657 205.531L426.016 252.172L379.375 205.531L426.016 158.89ZM426.016 156.505L376.991 205.531L426.016 254.557L475.042 205.531L426.016 156.505Z" fill="#F3FF97"/>
<path d="M427.125 163.786L379.283 211.628L427.125 259.471L474.967 211.628L427.125 163.786Z" fill="#030206"/>
<path d="M427.126 164.935L473.767 211.576L427.126 258.217L380.485 211.631L427.126 164.935ZM427.126 162.606L378.1 211.631L427.126 260.657L476.152 211.631L427.126 162.606Z" fill="#F3FF97"/>
<path d="M428.524 169.833L380.681 217.676L428.524 265.518L476.366 217.676L428.524 169.833Z" fill="#030206"/>
<path d="M428.512 170.98L475.153 217.621L428.512 264.262L381.871 217.621L428.512 170.98ZM428.512 168.651L379.486 217.677L428.512 266.702L477.538 217.677L428.512 168.651Z" fill="#F3FF97"/>
<path d="M430.164 175.787L382.322 223.63L430.164 271.472L478.006 223.63L430.164 175.787Z" fill="#030206"/>
<path d="M430.176 176.97L476.817 223.611L430.176 270.307L383.535 223.666L430.176 176.97ZM430.176 174.641L381.15 223.666L430.176 272.692L479.202 223.666L430.176 174.641Z" fill="#F3FF97"/>
<path d="M432.169 181.681L384.326 229.523L432.169 277.365L480.011 229.523L432.169 181.681Z" fill="#030206"/>
<path d="M432.172 182.848L478.813 229.489L432.172 276.13L385.476 229.545L432.172 182.848ZM432.172 180.519L383.147 229.545L432.172 278.571L481.198 229.545L432.172 180.519Z" fill="#F3FF97"/>
<path d="M434.386 187.518L386.544 235.361L434.386 283.203L482.228 235.361L434.386 187.518Z" fill="#030206"/>
<path d="M434.391 188.727L481.032 235.368L434.391 282.009L387.695 235.368L434.391 188.727ZM434.391 186.342L385.365 235.368L434.391 284.394L483.417 235.368L434.391 186.342Z" fill="#F3FF97"/>
<path d="M436.905 193.291L389.062 241.133L436.905 288.975L484.747 241.133L436.905 193.291Z" fill="#030206"/>
<path d="M436.887 194.439L483.528 241.08L436.887 287.721L390.246 241.08L436.887 194.439ZM436.887 192.11L387.861 241.136L436.887 290.161L485.912 241.136L436.887 192.11Z" fill="#F3FF97"/>
<path d="M439.653 198.917L391.811 246.76L439.653 294.602L487.496 246.76L439.653 198.917Z" fill="#030206"/>
<path d="M439.66 200.096L486.301 246.737L439.66 293.378L393.019 246.737L439.66 200.096ZM439.66 197.711L390.634 246.737L439.66 295.763L488.686 246.737L439.66 197.711Z" fill="#F3FF97"/>
<path d="M442.756 204.436L394.914 252.279L442.756 300.121L490.598 252.279L442.756 204.436Z" fill="#030206"/>
<path d="M442.765 205.642L489.406 252.283L442.765 298.924L396.124 252.283L442.765 205.642ZM442.765 203.257L393.739 252.283L442.765 301.309L491.791 252.283L442.765 203.257Z" fill="#F3FF97"/>
<path d="M446.103 209.882L398.261 257.725L446.103 305.567L493.945 257.725L446.103 209.882Z" fill="#030206"/>
<path d="M446.093 211.021L492.734 257.662L446.093 304.303L399.452 257.662L446.093 211.021ZM446.093 208.692L397.068 257.718L446.093 306.744L495.119 257.718L446.093 208.692Z" fill="#F3FF97"/>
<path d="M449.74 215.134L401.898 262.977L449.74 310.819L497.582 262.977L449.74 215.134Z" fill="#030206"/>
<path d="M449.753 216.345L496.394 262.986L449.753 309.683L403.112 263.042L449.753 216.345ZM449.753 213.961L400.727 262.986L449.753 312.012L498.779 262.986L449.753 213.961Z" fill="#F3FF97"/>
<path d="M453.637 220.307L405.794 268.15L453.637 315.992L501.479 268.15L453.637 220.307Z" fill="#030206"/>
<path d="M453.635 221.503L500.276 268.144L453.635 314.785L406.994 268.144L453.635 221.503ZM453.635 219.119L404.609 268.144L453.635 317.17L502.66 268.144L453.635 219.119Z" fill="#F3FF97"/>
<path d="M457.838 225.281L409.995 273.123L457.838 320.965L505.68 273.123L457.838 225.281Z" fill="#030206"/>
<path d="M457.85 226.495L504.491 273.136L457.85 319.777L411.209 273.136L457.85 226.495ZM457.85 224.11L408.825 273.136L457.85 322.161L506.876 273.136L457.85 224.11Z" fill="#F3FF97"/>
<path d="M462.272 230.133L414.43 277.976L462.272 325.818L510.114 277.976L462.272 230.133Z" fill="#030206"/>
<path d="M462.287 231.319L508.928 277.96L462.287 324.657L415.646 278.016L462.287 231.319ZM462.287 228.99L413.261 278.016L462.287 327.041L511.312 278.016L462.287 228.99Z" fill="#F3FF97"/>
<path d="M466.996 234.794L419.154 282.636L466.996 330.479L514.839 282.636L466.996 234.794Z" fill="#030206"/>
<path d="M467.001 235.978L513.642 282.619L467.001 329.316L420.36 282.675L467.001 235.978ZM467.001 233.594L417.975 282.619L467.001 331.645L516.027 282.619L467.001 233.594Z" fill="#F3FF97"/>
<path d="M471.925 239.144L424.083 286.986L471.925 334.828L519.767 286.986L471.925 239.144Z" fill="#030206"/>
<path d="M471.937 240.359L518.578 287L471.937 333.641L425.296 287L471.937 240.359ZM471.937 237.974L422.911 287L471.937 336.026L520.962 287L471.937 237.974Z" fill="#F3FF97"/>
<path d="M476.98 243.246L429.138 291.088L476.98 338.931L524.823 291.088L476.98 243.246Z" fill="#030206"/>
<path d="M476.984 244.408L523.625 291.049L476.984 337.745L430.343 291.104L476.984 244.408ZM476.984 242.079L427.958 291.104L476.984 340.13L526.01 291.104L476.984 242.079Z" fill="#F3FF97"/>
<path d="M482.158 247.095L434.316 294.937L482.158 342.779L530.001 294.937L482.158 247.095Z" fill="#030206"/>
<path d="M482.141 248.234L528.782 294.875L482.141 341.516L435.5 294.875L482.141 248.234ZM482.141 245.905L433.171 294.931L482.197 343.956L531.222 294.931L482.141 245.905Z" fill="#F3FF97"/>
<path d="M487.492 250.57L439.65 298.412L487.492 346.255L535.334 298.412L487.492 250.57Z" fill="#030206"/>
<path d="M487.521 251.784L534.162 298.425L487.521 345.121L440.88 298.48L487.521 251.784ZM487.521 249.454L438.495 298.48L487.521 347.506L536.547 298.48L487.521 249.454Z" fill="#F3FF97"/>
<path d="M492.945 253.852L445.103 301.695L492.945 349.537L540.788 301.695L492.945 253.852Z" fill="#030206"/>
<path d="M492.956 255.056L539.597 301.697L492.956 348.338L446.315 301.697L492.956 255.056ZM492.956 252.671L443.93 301.697L492.956 350.723L541.982 301.697L492.956 252.671Z" fill="#F3FF97"/>
<path d="M498.51 256.863L450.667 304.706L498.51 352.548L546.352 304.706L498.51 256.863Z" fill="#030206"/>
<path d="M498.502 257.995L545.198 304.691L498.557 351.332L451.861 304.691L498.502 257.995ZM498.502 255.666L449.531 304.691L498.557 353.717L547.583 304.691L498.502 255.666Z" fill="#F3FF97"/>
<path d="M504.226 259.549L456.384 307.391L504.226 355.233L552.069 307.391L504.226 259.549Z" fill="#030206"/>
<path d="M504.214 260.712L550.855 307.353L504.214 354.05L457.573 307.409L504.214 260.712ZM504.214 258.383L455.188 307.409L504.214 356.435L553.24 307.409L504.214 258.383Z" fill="#F3FF97"/>
<path d="M509.97 261.949L462.127 309.791L509.97 357.634L557.812 309.791L509.97 261.949Z" fill="#030206"/>
<path d="M509.981 263.153L556.622 309.794L509.981 356.435L463.34 309.794L509.981 263.153ZM509.981 260.768L460.956 309.794L509.981 358.82L559.007 309.794L509.981 260.768Z" fill="#F3FF97"/>
<path d="M515.819 264.127L467.977 311.97L515.819 359.812L563.662 311.97L515.819 264.127Z" fill="#030206"/>
<path d="M515.805 265.26L562.446 311.901L515.805 358.598L469.164 311.957L515.805 265.26ZM515.805 262.931L466.779 311.957L515.805 360.983L564.831 311.957L515.805 262.931Z" fill="#F3FF97"/>
<path d="M521.729 265.964L473.887 313.806L521.729 361.648L569.571 313.806L521.729 265.964Z" fill="#030206"/>
<path d="M521.738 267.145L568.379 313.787L521.738 360.428L475.097 313.787L521.738 267.145ZM521.738 264.761L472.713 313.787L521.738 362.812L570.764 313.787L521.738 264.761Z" fill="#F3FF97"/>
<path d="M527.739 267.568L479.897 315.41L527.739 363.253L575.581 315.41L527.739 267.568Z" fill="#030206"/>
<path d="M527.728 268.698L574.369 315.339L527.728 361.98L481.087 315.339L527.728 268.698ZM527.728 266.369L478.703 315.395L527.728 364.421L576.754 315.395L527.728 266.369Z" fill="#F3FF97"/>
<path d="M533.766 268.85L485.923 316.692L533.766 364.534L581.608 316.692L533.766 268.85Z" fill="#030206"/>
<path d="M533.774 270.03L580.415 316.671L533.774 363.312L487.133 316.671L533.774 270.03ZM533.774 267.645L484.748 316.671L533.774 365.697L582.8 316.671L533.774 267.645Z" fill="#F3FF97"/>
<path d="M539.883 269.89L492.041 317.732L539.883 365.575L587.725 317.732L539.883 269.89Z" fill="#030206"/>
<path d="M539.874 271.028L586.515 317.669L539.874 364.31L493.233 317.669L539.874 271.028ZM539.874 268.699L490.848 317.724L539.874 366.75L588.9 317.724L539.874 268.699Z" fill="#F3FF97"/>
<path d="M546.013 270.594L498.171 318.437L546.013 366.279L593.855 318.437L546.013 270.594Z" fill="#030206"/>
<path d="M546.029 271.804L592.67 318.445L546.029 365.142L499.388 318.501L546.029 271.804ZM546.029 269.42L497.004 318.445L546.029 367.471L595.055 318.445L546.029 269.42Z" fill="#F3FF97"/>
<path d="M552.151 271.112L504.309 318.954L552.151 366.796L599.993 318.954L552.151 271.112Z" fill="#030206"/>
<path d="M552.13 272.248L598.771 318.889L552.13 365.53L505.489 318.889L552.13 272.248ZM552.13 269.919L503.105 318.944L552.13 367.97L601.156 318.944L552.13 269.919Z" fill="#F3FF97"/>
<path d="M558.293 271.287L510.45 319.129L558.293 366.972L606.135 319.129L558.293 271.287Z" fill="#030206"/>
<path d="M558.286 272.414L604.927 319.055L558.286 365.696L511.645 319.111L558.286 272.414ZM558.286 270.085L509.316 319.111L558.342 368.136L607.312 319.111L558.286 270.085Z" fill="#F3FF97"/>
<path d="M564.476 271.143L516.634 318.985L564.476 366.827L612.318 318.985L564.476 271.143Z" fill="#030206"/>
<path d="M564.498 272.359L611.139 319L564.498 365.696L517.857 319.055L564.498 272.359ZM564.498 269.974L515.473 319L564.498 368.026L613.524 319L564.498 269.974Z" fill="#F3FF97"/>
<path d="M570.619 270.834L522.777 318.677L570.619 366.519L618.461 318.677L570.619 270.834Z" fill="#030206"/>
<path d="M570.598 271.971L617.24 318.612L570.598 365.253L523.958 318.612L570.598 271.971ZM570.598 269.642L521.573 318.667L570.598 367.693L619.624 318.667L570.598 269.642Z" fill="#F3FF97"/>
<path d="M576.757 270.155L528.914 317.998L576.757 365.84L624.599 317.998L576.757 270.155Z" fill="#030206"/>
<path d="M576.754 271.305L623.395 318.002L576.754 364.643L530.113 318.002L576.754 271.305ZM576.754 268.976L527.728 318.002L576.754 367.028L625.78 318.002L576.754 268.976Z" fill="#F3FF97"/>
<path d="M582.849 269.217L535.007 317.06L582.849 364.902L630.692 317.06L582.849 269.217Z" fill="#030206"/>
<path d="M582.854 270.418L629.495 317.059L582.854 363.7L536.213 317.059L582.854 270.418ZM582.854 268.033L533.828 317.059L582.854 366.085L631.88 317.059L582.854 268.033Z" fill="#F3FF97"/>
<path d="M588.892 268.01L541.05 315.853L588.892 363.695L636.735 315.853L588.892 268.01Z" fill="#030206"/>
<path d="M588.9 269.198L635.541 315.839L588.9 362.48L542.259 315.839L588.9 269.198ZM588.9 266.813L539.874 315.839L588.9 364.864L637.926 315.839L588.9 266.813Z" fill="#F3FF97"/>
<path d="M594.921 266.494L547.079 314.336L594.921 362.179L642.764 314.336L594.921 266.494Z" fill="#030206"/>
<path d="M594.945 267.7L641.586 314.341L594.945 360.982L548.304 314.341L594.945 267.7ZM594.945 265.315L545.919 314.341L594.945 363.367L643.97 314.341L594.945 265.315Z" fill="#F3FF97"/>
<path d="M600.856 264.731L553.014 312.573L600.856 360.416L648.699 312.573L600.856 264.731Z" fill="#030206"/>
<path d="M600.879 265.926L647.52 312.567L600.879 359.208L554.238 312.567L600.879 265.926ZM600.879 263.597L551.854 312.567L600.879 361.593L649.905 312.567L600.879 263.597Z" fill="#F3FF97"/>
<path d="M606.772 262.721L558.929 310.564L606.772 358.406L654.614 310.564L606.772 262.721Z" fill="#030206"/>
<path d="M606.757 263.874L653.398 310.515L606.757 357.212L560.116 310.571L606.757 263.874ZM606.757 261.545L557.731 310.571L606.757 359.597L655.783 310.571L606.757 261.545Z" fill="#F3FF97"/>
<path d="M612.586 260.381L564.743 308.224L612.586 356.066L660.428 308.224L612.586 260.381Z" fill="#030206"/>
<path d="M612.58 261.545L659.221 308.186L612.58 354.827L565.939 308.186L612.58 261.545ZM612.58 259.215L563.554 308.241L612.58 357.267L661.606 308.241L612.58 259.215Z" fill="#F3FF97"/>
<path d="M618.297 257.773L570.455 305.615L618.297 353.458L666.139 305.615L618.297 257.773Z" fill="#030206"/>
<path d="M618.293 258.938L664.934 305.579L618.293 352.22L571.652 305.579L618.293 258.938ZM618.293 256.609L569.268 305.635L618.293 354.66L667.319 305.635L618.293 256.609Z" fill="#F3FF97"/>
<path d="M623.901 254.892L576.059 302.734L623.901 350.576L671.744 302.734L623.901 254.892Z" fill="#030206"/>
<path d="M623.894 256.054L670.535 302.695L623.894 349.336L577.253 302.695L623.894 256.054ZM623.894 253.725L574.868 302.751L623.894 351.776L672.919 302.751L623.894 253.725Z" fill="#F3FF97"/>
<path d="M629.396 251.734L581.554 299.577L629.396 347.419L677.239 299.577L629.396 251.734Z" fill="#030206"/>
<path d="M629.385 252.893L676.026 299.534L629.385 346.175L582.744 299.534L629.385 252.893ZM629.385 250.563L580.359 299.589L629.385 348.615L678.411 299.589L629.385 250.563Z" fill="#F3FF97"/>
<path d="M634.738 248.254L586.896 296.096L634.738 343.939L682.58 296.096L634.738 248.254Z" fill="#030206"/>
<path d="M634.765 249.455L681.406 296.096L634.765 342.737L588.124 296.096L634.765 249.455ZM634.765 247.125L585.739 296.151L634.765 345.177L683.791 296.151L634.765 247.125Z" fill="#F3FF97"/>
<path d="M639.964 244.557L592.122 292.399L639.964 340.242L687.807 292.399L639.964 244.557Z" fill="#030206"/>
<path d="M639.977 245.739L686.618 292.38L639.977 339.076L593.336 292.435L639.977 245.739ZM639.977 243.354L590.951 292.38L639.977 341.405L689.003 292.38L639.977 243.354Z" fill="#F3FF97"/>
<path d="M645.072 240.562L597.229 288.404L645.072 336.246L692.914 288.404L645.072 240.562Z" fill="#030206"/>
<path d="M645.079 241.746L691.72 288.387L645.079 335.028L598.438 288.387L645.079 241.746ZM645.079 239.361L596.054 288.387L645.079 337.413L694.105 288.387L645.079 239.361Z" fill="#F3FF97"/>
<path d="M650.058 236.256L602.216 284.098L650.058 331.941L697.9 284.098L650.058 236.256Z" fill="#030206"/>
<path d="M650.071 237.476L696.712 284.117L650.071 330.758L603.43 284.117L650.071 237.476ZM650.071 235.091L601.045 284.117L650.071 333.143L699.097 284.117L650.071 235.091Z" fill="#F3FF97"/>
<path d="M654.84 231.716L606.998 279.558L654.84 327.4L702.682 279.558L654.84 231.716Z" fill="#030206"/>
<path d="M654.84 232.872L701.481 279.513L654.84 326.155L608.199 279.513L654.84 232.872ZM654.84 230.543L605.814 279.569L654.84 328.595L703.866 279.569L654.84 230.543Z" fill="#F3FF97"/>
<path d="M107.494 552.97C135.992 552.97 158.491 543.614 171.74 521.613L199.488 535.521C182.989 561.316 150.991 579.776 106.744 579.776C41.2476 579.776 0 544.119 0 485.956C0 427.793 41.2476 392.136 107.994 392.136C150.991 392.136 182.989 410.85 199.238 436.138L171.24 450.3C158.241 428.552 135.992 418.942 107.494 418.942C61.2464 418.942 30.4982 441.701 30.4982 485.956C30.4982 530.211 61.2464 552.97 107.494 552.97Z" fill="#030206"/>
<path d="M304.233 431.08C351.981 431.08 381.229 454.093 381.229 497.589V547.913C381.229 558.281 382.979 566.626 387.478 574.718H357.23C353.73 568.649 351.981 561.821 351.981 555.246V554.993C341.231 568.396 320.232 579.776 292.234 579.776C262.736 579.776 223.488 567.638 223.488 531.222C223.488 495.06 262.736 482.922 292.234 482.922C320.232 482.922 341.231 494.301 351.981 507.704V497.589C351.981 467.748 333.982 454.346 298.734 454.346C278.485 454.346 262.486 458.898 246.737 468.254L236.237 448.276C253.236 437.908 279.485 431.08 304.233 431.08ZM352.481 533.498V529.199C341.481 509.98 318.233 504.164 297.734 504.164C279.485 504.164 252.236 508.969 252.236 531.222C252.236 553.729 279.485 558.534 297.734 558.534C318.233 558.534 341.481 552.465 352.481 533.498Z" fill="#030206"/>
<path d="M440.727 579.776H411.479V441.196H440.727V468.001C452.726 448.276 475.225 436.138 503.223 436.138C544.971 436.138 565.719 463.197 565.719 500.623V579.776H536.721V502.646C536.721 475.335 522.972 460.668 495.723 460.668C472.225 460.668 452.476 471.795 440.727 494.554V579.776Z" fill="#030206"/>
<path d="M698.713 546.395L706.462 566.879C695.213 574.466 679.964 579.776 664.215 579.776C637.466 579.776 616.218 565.362 616.218 536.533V459.656H589.719V436.138H616.218V404.022H645.466V436.138H705.212V459.656H645.466V531.728C645.466 547.154 657.215 554.741 671.464 554.741C681.714 554.741 690.463 550.947 698.713 546.395Z" fill="#030206"/>
<path d="M815.707 579.776C762.711 579.776 730.462 551.2 730.462 505.428C730.462 459.403 762.711 430.574 815.707 430.574C868.954 430.574 900.952 459.403 900.952 505.428C900.952 551.2 868.954 579.776 815.707 579.776ZM815.707 554.993C848.205 554.993 872.454 538.556 872.454 505.428C872.454 471.795 848.205 455.357 815.707 455.357C783.459 455.357 759.211 471.795 759.211 505.428C759.211 538.556 783.459 554.993 815.707 554.993Z" fill="#030206"/>
<path d="M954.2 579.776H924.952V441.196H954.2V468.001C966.2 448.276 988.698 436.138 1016.7 436.138C1058.44 436.138 1079.19 463.197 1079.19 500.623V579.776H1050.19V502.646C1050.19 475.335 1036.45 460.668 1009.2 460.668C985.699 460.668 965.95 471.795 954.2 494.554V579.776Z" fill="#030206"/>
</svg>
